STARTFONT 2.1
COMMENT
COMMENT Converted from TrueType font "GOTHIC.TTF" by "ttf2bdf 2.6".
COMMENT
FONT -FreeType-Century Gothic-Medium-R-Normal--19-140-100-100-P-99-ISO10646-1
SIZE 14 100 100
FONTBOUNDINGBOX 25 28 -3 -6
STARTPROPERTIES 21
FOUNDRY "FreeType"
FAMILY_NAME "Century Gothic"
WEIGHT_NAME "Medium"
SLANT "R"
SETWIDTH_NAME "Normal"
ADD_STYLE_NAME ""
PIXEL_SIZE 19
POINT_SIZE 140
RESOLUTION_X 100
RESOLUTION_Y 100
SPACING "P"
AVERAGE_WIDTH 99
CHARSET_REGISTRY "ISO10646"
CHARSET_ENCODING "1"
FONT_ASCENT 19
FONT_DESCENT 4
COPYRIGHT "Typeface © The Monotype Corporation plc. Data © The Monotype Corporation plc / Type Solutions Inc. 1990-91 All Rights Reserved"
_TTF_FONTFILE "GOTHIC.TTF"
_TTF_PSNAME "CenturyGothic"
_XFREE86_GLYPH_RANGES "32_126 160_383 402 506_511 710_711 713 728_733 894 900_906 908 910_929 931_974 1025_1036 1038_1103 1105_1116 1118_1119 1168_1169 7808_7813 7922_7923 8211_8213 8215_8222 8224_8226 8230 8240 8242_8243 8249_8250 8252 8254 8260 8319 8355_8356 8359 8364 8453 8467 8470 8482 8486 8494 8539_8542 8592_8597 8616 8706 8710 8719 8721_8722 8725 8729_8730 8734_8735 8745 8747 8776 8800_8801 8804_8805 8962 8976 8992_8993 9472 9474 9484 9488 9492 9496 9500 9508 9516 9524 9532 9552_9580 9600 9604 9608"
_XFREE86_GLYPH_RANGES "9612 9616_9619 9632_9633 9642_9644 9650 9658 9660 9668 9674_9675 9679 9688_9689 9702 9786_9788 9792 9794 9824 9827 9829_9830 9834_9835 61440_61446 61696_61704 64257_64258"
ENDPROPERTIES
CHARS 668
STARTCHAR 0020
ENCODING 32
SWIDTH 257 0
DWIDTH 5 0
BBX 1 1 0 0
BITMAP
00
ENDCHAR
STARTCHAR 0021
ENCODING 33
SWIDTH 257 0
DWIDTH 5 0
BBX 1 14 2 0
BITMAP
80
80
80
80
80
80
80
80
80
80
80
00
80
80
ENDCHAR
STARTCHAR 0022
ENCODING 34
SWIDTH 308 0
DWIDTH 6 0
BBX 5 4 1 10
BITMAP
88
88
88
88
ENDCHAR
STARTCHAR 0023
ENCODING 35
SWIDTH 720 0
DWIDTH 14 0
BBX 10 14 2 0
BITMAP
0900
0900
0900
1200
FFC0
1200
1200
1200
FFC0
1200
1200
2400
2400
2400
ENDCHAR
STARTCHAR 0024
ENCODING 36
SWIDTH 565 0
DWIDTH 11 0
BBX 10 18 0 -3
BITMAP
0400
1F00
2480
4400
4400
4400
3400
0C00
0700
0480
0440
0440
8440
6480
1F00
0400
0400
0400
ENDCHAR
STARTCHAR 0025
ENCODING 37
SWIDTH 771 0
DWIDTH 15 0
BBX 14 15 1 -1
BITMAP
7838
8FF0
8420
8440
8440
7880
0100
0200
0278
0484
0884
0884
1084
2078
4000
ENDCHAR
STARTCHAR 0026
ENCODING 38
SWIDTH 720 0
DWIDTH 14 0
BBX 12 14 1 0
BITMAP
1C00
2200
2200
2200
2200
1400
1800
1800
6400
4220
8140
8080
8340
7C30
ENDCHAR
STARTCHAR 0027
ENCODING 39
SWIDTH 205 0
DWIDTH 4 0
BBX 1 4 1 10
BITMAP
80
80
80
80
ENDCHAR
STARTCHAR 0028
ENCODING 40
SWIDTH 360 0
DWIDTH 7 0
BBX 3 18 3 -4
BITMAP
20
40
40
40
40
80
80
80
80
80
80
80
80
80
40
40
40
20
ENDCHAR
STARTCHAR 0029
ENCODING 41
SWIDTH 360 0
DWIDTH 7 0
BBX 3 18 1 -4
BITMAP
80
40
40
40
20
20
20
20
20
20
20
20
20
40
40
40
40
80
ENDCHAR
STARTCHAR 002A
ENCODING 42
SWIDTH 462 0
DWIDTH 9 0
BBX 7 6 1 8
BITMAP
10
96
78
38
D6
10
ENDCHAR
STARTCHAR 002B
ENCODING 43
SWIDTH 565 0
DWIDTH 11 0
BBX 9 9 1 2
BITMAP
0800
0800
0800
0800
FF80
0800
0800
0800
0800
ENDCHAR
STARTCHAR 002C
ENCODING 44
SWIDTH 257 0
DWIDTH 5 0
BBX 3 4 1 -1
BITMAP
60
40
40
80
ENDCHAR
STARTCHAR 002D
ENCODING 45
SWIDTH 308 0
DWIDTH 6 0
BBX 5 1 0 5
BITMAP
F8
ENDCHAR
STARTCHAR 002E
ENCODING 46
SWIDTH 257 0
DWIDTH 5 0
BBX 2 2 2 0
BITMAP
C0
C0
ENDCHAR
STARTCHAR 002F
ENCODING 47
SWIDTH 411 0
DWIDTH 8 0
BBX 7 16 0 -2
BITMAP
02
04
04
04
08
08
08
10
10
20
20
20
40
40
40
80
ENDCHAR
STARTCHAR 0030
ENCODING 48
SWIDTH 565 0
DWIDTH 11 0
BBX 10 14 0 0
BITMAP
1E00
2100
4080
8040
8040
8040
8040
8040
8040
8040
8040
4080
2100
1E00
ENDCHAR
STARTCHAR 0031
ENCODING 49
SWIDTH 565 0
DWIDTH 11 0
BBX 3 14 3 0
BITMAP
E0
20
20
20
20
20
20
20
20
20
20
20
20
20
ENDCHAR
STARTCHAR 0032
ENCODING 50
SWIDTH 565 0
DWIDTH 11 0
BBX 9 14 1 0
BITMAP
3E00
4100
8080
8080
0080
0080
0100
0200
0400
0800
1000
2000
4000
FF80
ENDCHAR
STARTCHAR 0033
ENCODING 51
SWIDTH 565 0
DWIDTH 11 0
BBX 10 14 0 0
BITMAP
3E00
4100
8080
0080
0080
0100
0F00
0080
0040
0040
8040
8040
4080
3F00
ENDCHAR
STARTCHAR 0034
ENCODING 52
SWIDTH 565 0
DWIDTH 11 0
BBX 10 14 0 0
BITMAP
0100
0100
0300
0500
0500
0900
1100
2100
2100
4100
FFC0
0100
0100
0100
ENDCHAR
STARTCHAR 0035
ENCODING 53
SWIDTH 565 0
DWIDTH 11 0
BBX 9 14 1 0
BITMAP
3F80
2000
2000
4000
4000
7E00
4100
0080
0080
0080
0080
8080
4100
3E00
ENDCHAR
STARTCHAR 0036
ENCODING 54
SWIDTH 565 0
DWIDTH 11 0
BBX 9 14 1 0
BITMAP
0200
0400
0800
0800
1000
2000
7E00
4100
8080
8080
8080
8080
4100
3E00
ENDCHAR
STARTCHAR 0037
ENCODING 55
SWIDTH 565 0
DWIDTH 11 0
BBX 9 14 1 0
BITMAP
FF80
0100
0100
0200
0400
0400
0800
0800
1000
1000
2000
4000
4000
8000
ENDCHAR
STARTCHAR 0038
ENCODING 56
SWIDTH 565 0
DWIDTH 11 0
BBX 10 14 0 0
BITMAP
1E00
2100
4080
4080
4080
2100
3F00
4080
8040
8040
8040
8040
4080
3F00
ENDCHAR
STARTCHAR 0039
ENCODING 57
SWIDTH 565 0
DWIDTH 11 0
BBX 9 14 1 0
BITMAP
3E00
4100
8080
8080
8080
8080
4100
3F00
0200
0400
0400
0800
1000
2000
ENDCHAR
STARTCHAR 003A
ENCODING 58
SWIDTH 257 0
DWIDTH 5 0
BBX 2 10 2 0
BITMAP
C0
C0
00
00
00
00
00
00
C0
C0
ENDCHAR
STARTCHAR 003B
ENCODING 59
SWIDTH 257 0
DWIDTH 5 0
BBX 3 11 1 -1
BITMAP
60
60
00
00
00
00
00
60
40
40
80
ENDCHAR
STARTCHAR 003C
ENCODING 60
SWIDTH 617 0
DWIDTH 12 0
BBX 10 11 1 1
BITMAP
0040
0180
0600
0800
3000
C000
3000
0800
0600
0180
0040
ENDCHAR
STARTCHAR 003D
ENCODING 61
SWIDTH 617 0
DWIDTH 12 0
BBX 10 5 1 4
BITMAP
FFC0
0000
0000
0000
FFC0
ENDCHAR
STARTCHAR 003E
ENCODING 62
SWIDTH 617 0
DWIDTH 12 0
BBX 10 11 1 1
BITMAP
8000
6000
1800
0400
0300
00C0
0300
0400
1800
6000
8000
ENDCHAR
STARTCHAR 003F
ENCODING 63
SWIDTH 565 0
DWIDTH 11 0
BBX 7 14 2 0
BITMAP
3C
42
82
82
02
0C
30
40
42
42
3C
00
18
18
ENDCHAR
STARTCHAR 0040
ENCODING 64
SWIDTH 822 0
DWIDTH 16 0
BBX 13 14 1 0
BITMAP
0F80
1040
2020
4010
87C8
8848
9048
9048
9088
9090
4F60
2000
1008
0FF0
ENDCHAR
STARTCHAR 0041
ENCODING 65
SWIDTH 771 0
DWIDTH 15 0
BBX 13 14 1 0
BITMAP
0200
0500
0500
0D00
0880
0880
1040
1040
3FE0
2020
4020
4010
4010
8008
ENDCHAR
STARTCHAR 0042
ENCODING 66
SWIDTH 565 0
DWIDTH 11 0
BBX 8 14 2 0
BITMAP
F8
84
82
82
82
84
FC
82
81
81
81
81
82
FC
ENDCHAR
STARTCHAR 0043
ENCODING 67
SWIDTH 771 0
DWIDTH 15 0
BBX 13 14 1 0
BITMAP
0FC0
1030
2008
4000
8000
8000
8000
8000
8000
8000
4000
2008
1030
0FC0
ENDCHAR
STARTCHAR 0044
ENCODING 68
SWIDTH 720 0
DWIDTH 14 0
BBX 11 14 2 0
BITMAP
FE00
8100
8080
8040
8020
8020
8020
8020
8020
8020
8040
8080
8100
FE00
ENDCHAR
STARTCHAR 0045
ENCODING 69
SWIDTH 514 0
DWIDTH 10 0
BBX 7 14 2 0
BITMAP
FE
80
80
80
80
80
FE
80
80
80
80
80
80
FE
ENDCHAR
STARTCHAR 0046
ENCODING 70
SWIDTH 462 0
DWIDTH 9 0
BBX 6 14 2 0
BITMAP
FC
80
80
80
80
80
FC
80
80
80
80
80
80
80
ENDCHAR
STARTCHAR 0047
ENCODING 71
SWIDTH 874 0
DWIDTH 17 0
BBX 15 14 1 0
BITMAP
0FE0
1038
2004
4000
8000
8000
8000
807E
8002
8002
4004
2008
1010
0FE0
ENDCHAR
STARTCHAR 0048
ENCODING 72
SWIDTH 668 0
DWIDTH 13 0
BBX 9 14 2 0
BITMAP
8080
8080
8080
8080
8080
8080
FF80
8080
8080
8080
8080
8080
8080
8080
ENDCHAR
STARTCHAR 0049
ENCODING 73
SWIDTH 257 0
DWIDTH 5 0
BBX 1 14 2 0
BITMAP
80
80
80
80
80
80
80
80
80
80
80
80
80
80
ENDCHAR
STARTCHAR 004A
ENCODING 74
SWIDTH 462 0
DWIDTH 9 0
BBX 6 14 1 0
BITMAP
04
04
04
04
04
04
04
04
04
04
04
04
88
70
ENDCHAR
STARTCHAR 004B
ENCODING 75
SWIDTH 565 0
DWIDTH 11 0
BBX 8 14 2 0
BITMAP
82
84
88
90
A0
C0
C0
A0
90
88
84
84
82
81
ENDCHAR
STARTCHAR 004C
ENCODING 76
SWIDTH 462 0
DWIDTH 9 0
BBX 6 14 2 0
BITMAP
80
80
80
80
80
80
80
80
80
80
80
80
80
FC
ENDCHAR
STARTCHAR 004D
ENCODING 77
SWIDTH 874 0
DWIDTH 17 0
BBX 15 14 1 0
BITMAP
2008
2008
5014
5014
5014
4824
4824
4444
4444
4444
8282
8282
8282
8102
ENDCHAR
STARTCHAR 004E
ENCODING 78
SWIDTH 720 0
DWIDTH 14 0
BBX 10 14 2 0
BITMAP
8040
8040
C040
A040
9040
9040
8840
8440
8240
8240
8140
80C0
8040
8040
ENDCHAR
STARTCHAR 004F
ENCODING 79
SWIDTH 874 0
DWIDTH 17 0
BBX 15 14 1 0
BITMAP
0FE0
1010
2008
4004
8002
8002
8002
8002
8002
8002
4004
2008
1010
0FE0
ENDCHAR
STARTCHAR 0050
ENCODING 80
SWIDTH 565 0
DWIDTH 11 0
BBX 8 14 2 0
BITMAP
FC
82
81
81
81
82
FC
80
80
80
80
80
80
80
ENDCHAR
STARTCHAR 0051
ENCODING 81
SWIDTH 874 0
DWIDTH 17 0
BBX 15 15 1 -1
BITMAP
0FE0
1010
2008
4004
8002
8002
8002
8002
8082
8042
4024
2018
1038
0FC4
0002
ENDCHAR
STARTCHAR 0052
ENCODING 82
SWIDTH 617 0
DWIDTH 12 0
BBX 9 14 2 0
BITMAP
FE00
8100
8080
8080
8080
8100
FE00
9000
8800
8400
8400
8200
8100
8080
ENDCHAR
STARTCHAR 0053
ENCODING 83
SWIDTH 462 0
DWIDTH 9 0
BBX 8 14 0 0
BITMAP
1C
22
41
40
20
10
08
04
02
01
81
41
42
3C
ENDCHAR
STARTCHAR 0054
ENCODING 84
SWIDTH 411 0
DWIDTH 8 0
BBX 7 14 0 0
BITMAP
FE
10
10
10
10
10
10
10
10
10
10
10
10
10
ENDCHAR
STARTCHAR 0055
ENCODING 85
SWIDTH 617 0
DWIDTH 12 0
BBX 8 14 2 0
BITMAP
81
81
81
81
81
81
81
81
81
81
81
81
42
3C
ENDCHAR
STARTCHAR 0056
ENCODING 86
SWIDTH 771 0
DWIDTH 15 0
BBX 13 14 1 0
BITMAP
8008
4010
4010
2030
2020
2020
1040
1040
0880
0880
0580
0500
0500
0200
ENDCHAR
STARTCHAR 0057
ENCODING 87
SWIDTH 874 0
DWIDTH 17 0
BBX 15 14 1 0
BITMAP
8102
8102
4284
4284
4284
4444
4444
2448
2828
2828
2828
2838
1010
1010
ENDCHAR
STARTCHAR 0058
ENCODING 88
SWIDTH 617 0
DWIDTH 12 0
BBX 11 14 0 0
BITMAP
8020
4040
4040
2080
1100
0A00
0400
0400
0A00
1100
2080
4040
4040
8020
ENDCHAR
STARTCHAR 0059
ENCODING 89
SWIDTH 565 0
DWIDTH 11 0
BBX 9 14 1 0
BITMAP
8080
4100
4100
2200
2200
1400
1C00
0800
0800
0800
0800
0800
0800
0800
ENDCHAR
STARTCHAR 005A
ENCODING 90
SWIDTH 462 0
DWIDTH 9 0
BBX 7 14 1 0
BITMAP
FE
04
04
08
08
08
10
10
20
20
40
40
40
FE
ENDCHAR
STARTCHAR 005B
ENCODING 91
SWIDTH 360 0
DWIDTH 7 0
BBX 3 18 3 -4
BITMAP
E0
80
80
80
80
80
80
80
80
80
80
80
80
80
80
80
80
E0
ENDCHAR
STARTCHAR 005C
ENCODING 92
SWIDTH 617 0
DWIDTH 12 0
BBX 11 16 0 -2
BITMAP
8000
4000
2000
2000
1000
1000
0800
0400
0400
0200
0100
0100
0080
0080
0040
0020
ENDCHAR
STARTCHAR 005D
ENCODING 93
SWIDTH 360 0
DWIDTH 7 0
BBX 3 18 1 -4
BITMAP
E0
20
20
20
20
20
20
20
20
20
20
20
20
20
20
20
20
E0
ENDCHAR
STARTCHAR 005E
ENCODING 94
SWIDTH 668 0
DWIDTH 13 0
BBX 11 11 1 3
BITMAP
0400
0A00
0A00
1100
1100
2100
2080
2080
4040
4040
8020
ENDCHAR
STARTCHAR 005F
ENCODING 95
SWIDTH 514 0
DWIDTH 10 0
BBX 10 1 0 -2
BITMAP
FFC0
ENDCHAR
STARTCHAR 0060
ENCODING 96
SWIDTH 360 0
DWIDTH 7 0
BBX 4 3 1 12
BITMAP
C0
60
30
ENDCHAR
STARTCHAR 0061
ENCODING 97
SWIDTH 668 0
DWIDTH 13 0
BBX 11 10 1 0
BITMAP
1F20
20A0
4060
8020
8020
8020
8020
4060
20A0
1F20
ENDCHAR
STARTCHAR 0062
ENCODING 98
SWIDTH 668 0
DWIDTH 13 0
BBX 11 14 1 0
BITMAP
8000
8000
8000
8000
9F00
A080
C040
8020
8020
8020
8020
C040
A080
9F00
ENDCHAR
STARTCHAR 0063
ENCODING 99
SWIDTH 617 0
DWIDTH 12 0
BBX 10 10 1 0
BITMAP
1F00
2080
4040
8000
8000
8000
8000
4040
2080
1F00
ENDCHAR
STARTCHAR 0064
ENCODING 100
SWIDTH 668 0
DWIDTH 13 0
BBX 11 14 1 0
BITMAP
0020
0020
0020
0020
1F20
20A0
4060
8020
8020
8020
8020
4060
20A0
1F20
ENDCHAR
STARTCHAR 0065
ENCODING 101
SWIDTH 617 0
DWIDTH 12 0
BBX 10 10 1 0
BITMAP
1E00
2100
4080
8040
FFC0
8000
8000
4040
2080
1F00
ENDCHAR
STARTCHAR 0066
ENCODING 102
SWIDTH 308 0
DWIDTH 6 0
BBX 5 14 1 0
BITMAP
38
40
40
40
F8
40
40
40
40
40
40
40
40
40
ENDCHAR
STARTCHAR 0067
ENCODING 103
SWIDTH 668 0
DWIDTH 13 0
BBX 11 14 1 -4
BITMAP
1F20
20A0
4060
8020
8020
8020
8020
4060
20A0
1F20
0020
8040
4080
3F00
ENDCHAR
STARTCHAR 0068
ENCODING 104
SWIDTH 617 0
DWIDTH 12 0
BBX 10 14 1 0
BITMAP
8000
8000
8000
8000
9E00
A100
C080
8040
8040
8040
8040
8040
8040
8040
ENDCHAR
STARTCHAR 0069
ENCODING 105
SWIDTH 154 0
DWIDTH 3 0
BBX 1 14 1 0
BITMAP
80
80
00
00
80
80
80
80
80
80
80
80
80
80
ENDCHAR
STARTCHAR 006A
ENCODING 106
SWIDTH 154 0
DWIDTH 3 0
BBX 3 18 -1 -4
BITMAP
20
20
00
00
20
20
20
20
20
20
20
20
20
20
20
20
20
C0
ENDCHAR
STARTCHAR 006B
ENCODING 107
SWIDTH 514 0
DWIDTH 10 0
BBX 8 14 1 0
BITMAP
80
80
80
80
81
82
8C
90
A0
E0
90
8C
82
81
ENDCHAR
STARTCHAR 006C
ENCODING 108
SWIDTH 154 0
DWIDTH 3 0
BBX 1 14 1 0
BITMAP
80
80
80
80
80
80
80
80
80
80
80
80
80
80
ENDCHAR
STARTCHAR 006D
ENCODING 109
SWIDTH 874 0
DWIDTH 17 0
BBX 15 10 1 0
BITMAP
9C38
A244
C182
8102
8102
8102
8102
8102
8102
8102
ENDCHAR
STARTCHAR 006E
ENCODING 110
SWIDTH 617 0
DWIDTH 12 0
BBX 10 10 1 0
BITMAP
9E00
A100
C080
8040
8040
8040
8040
8040
8040
8040
ENDCHAR
STARTCHAR 006F
ENCODING 111
SWIDTH 617 0
DWIDTH 12 0
BBX 10 10 1 0
BITMAP
1E00
2100
4080
8040
8040
8040
8040
4080
2100
1E00
ENDCHAR
STARTCHAR 0070
ENCODING 112
SWIDTH 668 0
DWIDTH 13 0
BBX 11 14 1 -4
BITMAP
9F00
A080
C040
8020
8020
8020
8020
C040
A080
9F00
8000
8000
8000
8000
ENDCHAR
STARTCHAR 0071
ENCODING 113
SWIDTH 668 0
DWIDTH 13 0
BBX 11 14 1 -4
BITMAP
1F20
20A0
4060
8020
8020
8020
8020
4060
20A0
1F20
0020
0020
0020
0020
ENDCHAR
STARTCHAR 0072
ENCODING 114
SWIDTH 308 0
DWIDTH 6 0
BBX 5 10 1 0
BITMAP
98
A0
C0
80
80
80
80
80
80
80
ENDCHAR
STARTCHAR 0073
ENCODING 115
SWIDTH 360 0
DWIDTH 7 0
BBX 6 10 0 0
BITMAP
78
84
80
80
60
18
04
04
84
78
ENDCHAR
STARTCHAR 0074
ENCODING 116
SWIDTH 360 0
DWIDTH 7 0
BBX 5 14 1 0
BITMAP
20
20
20
20
F8
20
20
20
20
20
20
20
20
20
ENDCHAR
STARTCHAR 0075
ENCODING 117
SWIDTH 617 0
DWIDTH 12 0
BBX 10 10 1 0
BITMAP
8040
8040
8040
8040
8040
8040
8040
4080
2100
1E00
ENDCHAR
STARTCHAR 0076
ENCODING 118
SWIDTH 668 0
DWIDTH 13 0
BBX 11 10 1 0
BITMAP
8020
4040
4040
2080
2080
1100
1100
0A00
0A00
0400
ENDCHAR
STARTCHAR 0077
ENCODING 119
SWIDTH 822 0
DWIDTH 16 0
BBX 15 10 0 0
BITMAP
8102
4104
4284
4284
2288
2448
1450
1450
1450
0820
ENDCHAR
STARTCHAR 0078
ENCODING 120
SWIDTH 462 0
DWIDTH 9 0
BBX 9 10 0 0
BITMAP
8080
4100
2200
1400
0800
0800
1400
2200
4100
8080
ENDCHAR
STARTCHAR 0079
ENCODING 121
SWIDTH 565 0
DWIDTH 11 0
BBX 10 14 0 -4
BITMAP
8040
4080
4080
2100
2100
1200
1200
0C00
0C00
0800
0800
1000
1000
2000
ENDCHAR
STARTCHAR 007A
ENCODING 122
SWIDTH 411 0
DWIDTH 8 0
BBX 8 10 0 0
BITMAP
FF
02
04
04
08
10
20
20
40
FF
ENDCHAR
STARTCHAR 007B
ENCODING 123
SWIDTH 308 0
DWIDTH 6 0
BBX 5 18 0 -4
BITMAP
18
20
20
20
20
20
20
20
40
80
40
20
20
20
20
20
20
18
ENDCHAR
STARTCHAR 007C
ENCODING 124
SWIDTH 668 0
DWIDTH 13 0
BBX 1 18 5 -4
BITMAP
80
80
80
80
80
80
80
80
80
80
80
80
80
80
80
80
80
80
ENDCHAR
STARTCHAR 007D
ENCODING 125
SWIDTH 308 0
DWIDTH 6 0
BBX 5 18 0 -4
BITMAP
C0
20
20
20
20
20
20
20
10
08
10
20
20
20
20
20
20
C0
ENDCHAR
STARTCHAR 007E
ENCODING 126
SWIDTH 617 0
DWIDTH 12 0
BBX 10 2 1 6
BITMAP
7840
8780
ENDCHAR
STARTCHAR 00A0
ENCODING 160
SWIDTH 257 0
DWIDTH 5 0
BBX 1 1 0 0
BITMAP
00
ENDCHAR
STARTCHAR 00A1
ENCODING 161
SWIDTH 257 0
DWIDTH 5 0
BBX 1 14 2 -4
BITMAP
80
80
00
80
80
80
80
80
80
80
80
80
80
80
ENDCHAR
STARTCHAR 00A2
ENCODING 162
SWIDTH 565 0
DWIDTH 11 0
BBX 9 14 1 -2
BITMAP
0080
0100
1F00
2280
4200
8400
8800
8800
9000
6000
2180
5E00
4000
8000
ENDCHAR
STARTCHAR 00A3
ENCODING 163
SWIDTH 565 0
DWIDTH 11 0
BBX 10 14 0 0
BITMAP
1F00
2080
2080
2000
2000
2000
FF00
1000
1000
1000
7000
9040
BC40
E780
ENDCHAR
STARTCHAR 00A4
ENCODING 164
SWIDTH 565 0
DWIDTH 11 0
BBX 10 10 1 0
BITMAP
BF40
6180
C0C0
8040
8040
8040
8040
C0C0
6180
BF40
ENDCHAR
STARTCHAR 00A5
ENCODING 165
SWIDTH 514 0
DWIDTH 10 0
BBX 9 14 0 0
BITMAP
8080
4100
4100
2200
2200
1400
1400
7F00
0800
7F00
0800
0800
0800
0800
ENDCHAR
STARTCHAR 00A6
ENCODING 166
SWIDTH 668 0
DWIDTH 13 0
BBX 1 18 5 -4
BITMAP
80
80
80
80
80
80
80
00
80
80
80
80
80
80
80
80
80
80
ENDCHAR
STARTCHAR 00A7
ENCODING 167
SWIDTH 617 0
DWIDTH 12 0
BBX 8 18 1 -4
BITMAP
7C
82
81
80
40
30
4C
82
81
C1
63
1E
0E
02
01
01
C1
3E
ENDCHAR
STARTCHAR 00A8
ENCODING 168
SWIDTH 360 0
DWIDTH 7 0
BBX 6 2 0 12
BITMAP
CC
CC
ENDCHAR
STARTCHAR 00A9
ENCODING 169
SWIDTH 720 0
DWIDTH 14 0
BBX 14 14 0 0
BITMAP
0FC0
1020
2010
4F88
90C4
9044
9004
9004
9044
90C4
4F08
2010
1020
0FC0
ENDCHAR
STARTCHAR 00AA
ENCODING 170
SWIDTH 360 0
DWIDTH 7 0
BBX 6 6 0 8
BITMAP
7C
CC
84
84
CC
7C
ENDCHAR
STARTCHAR 00AB
ENCODING 171
SWIDTH 360 0
DWIDTH 7 0
BBX 7 10 0 0
BITMAP
22
44
44
88
88
88
44
44
44
22
ENDCHAR
STARTCHAR 00AC
ENCODING 172
SWIDTH 617 0
DWIDTH 12 0
BBX 10 5 1 5
BITMAP
FFC0
0040
0040
0040
0040
ENDCHAR
STARTCHAR 00AD
ENCODING 173
SWIDTH 308 0
DWIDTH 6 0
BBX 5 1 0 5
BITMAP
F8
ENDCHAR
STARTCHAR 00AE
ENCODING 174
SWIDTH 720 0
DWIDTH 14 0
BBX 14 14 0 0
BITMAP
0FC0
1020
2010
4F08
8884
8884
8F84
8844
8844
8844
4848
2010
1020
0FC0
ENDCHAR
STARTCHAR 00AF
ENCODING 175
SWIDTH 514 0
DWIDTH 10 0
BBX 12 1 -1 15
BITMAP
FFF0
ENDCHAR
STARTCHAR 00B0
ENCODING 176
SWIDTH 411 0
DWIDTH 8 0
BBX 7 6 0 8
BITMAP
7C
82
82
82
82
7C
ENDCHAR
STARTCHAR 00B1
ENCODING 177
SWIDTH 514 0
DWIDTH 10 0
BBX 9 12 0 0
BITMAP
0800
0800
0800
0800
FF80
0800
0800
0800
0800
0000
0000
FF80
ENDCHAR
STARTCHAR 00B2
ENCODING 178
SWIDTH 308 0
DWIDTH 6 0
BBX 5 7 0 7
BITMAP
70
88
88
10
20
40
F8
ENDCHAR
STARTCHAR 00B3
ENCODING 179
SWIDTH 360 0
DWIDTH 7 0
BBX 6 7 0 7
BITMAP
78
84
04
18
04
84
78
ENDCHAR
STARTCHAR 00B4
ENCODING 180
SWIDTH 360 0
DWIDTH 7 0
BBX 4 3 2 12
BITMAP
30
60
C0
ENDCHAR
STARTCHAR 00B5
ENCODING 181
SWIDTH 565 0
DWIDTH 11 0
BBX 9 14 1 -4
BITMAP
8080
8080
8080
8080
8080
8080
8080
C180
A280
9C80
8000
8000
8000
8000
ENDCHAR
STARTCHAR 00B6
ENCODING 182
SWIDTH 565 0
DWIDTH 11 0
BBX 9 16 1 -2
BITMAP
3F80
7900
F900
F900
F900
7900
3900
0900
0900
0900
0900
0900
0900
0900
0900
0900
ENDCHAR
STARTCHAR 00B7
ENCODING 183
SWIDTH 308 0
DWIDTH 6 0
BBX 2 2 4 6
BITMAP
C0
C0
ENDCHAR
STARTCHAR 00B8
ENCODING 184
SWIDTH 360 0
DWIDTH 7 0
BBX 4 4 1 -4
BITMAP
20
30
10
E0
ENDCHAR
STARTCHAR 00B9
ENCODING 185
SWIDTH 308 0
DWIDTH 6 0
BBX 3 7 1 7
BITMAP
E0
20
20
20
20
20
20
ENDCHAR
STARTCHAR 00BA
ENCODING 186
SWIDTH 360 0
DWIDTH 7 0
BBX 6 6 0 8
BITMAP
78
84
84
84
84
78
ENDCHAR
STARTCHAR 00BB
ENCODING 187
SWIDTH 360 0
DWIDTH 7 0
BBX 7 10 0 0
BITMAP
88
44
44
44
22
22
22
44
44
88
ENDCHAR
STARTCHAR 00BC
ENCODING 188
SWIDTH 822 0
DWIDTH 16 0
BBX 14 14 1 0
BITMAP
E010
2020
2020
2040
2080
2080
2100
0108
0218
0228
0448
08FC
0808
1008
ENDCHAR
STARTCHAR 00BD
ENCODING 189
SWIDTH 822 0
DWIDTH 16 0
BBX 13 14 1 0
BITMAP
E020
2040
2040
2080
2100
2100
2200
0270
0488
0488
0810
1020
1040
20F8
ENDCHAR
STARTCHAR 00BE
ENCODING 190
SWIDTH 822 0
DWIDTH 16 0
BBX 15 14 0 0
BITMAP
7808
8410
0410
1820
0440
8440
7880
0084
010C
0114
0224
047E
0404
0804
ENDCHAR
STARTCHAR 00BF
ENCODING 191
SWIDTH 565 0
DWIDTH 11 0
BBX 8 14 2 -4
BITMAP
18
18
00
7C
82
82
02
0C
70
80
81
81
82
7C
ENDCHAR
STARTCHAR 00C0
ENCODING 192
SWIDTH 771 0
DWIDTH 15 0
BBX 13 18 1 0
BITMAP
0C00
0600
0300
0000
0200
0500
0500
0D00
0880
0880
1040
1040
3FE0
2020
4020
4010
4010
8008
ENDCHAR
STARTCHAR 00C1
ENCODING 193
SWIDTH 771 0
DWIDTH 15 0
BBX 13 18 1 0
BITMAP
0180
0300
0600
0000
0200
0500
0500
0D00
0880
0880
1040
1040
3FE0
2020
4020
4010
4010
8008
ENDCHAR
STARTCHAR 00C2
ENCODING 194
SWIDTH 771 0
DWIDTH 15 0
BBX 13 18 1 0
BITMAP
0600
0900
1080
0000
0200
0500
0500
0D00
0880
0880
1040
1040
3FE0
2020
4020
4010
4010
8008
ENDCHAR
STARTCHAR 00C3
ENCODING 195
SWIDTH 771 0
DWIDTH 15 0
BBX 13 17 1 0
BITMAP
0E40
0980
0000
0200
0500
0500
0D00
0880
0880
1040
1040
3FE0
2020
4020
4010
4010
8008
ENDCHAR
STARTCHAR 00C4
ENCODING 196
SWIDTH 771 0
DWIDTH 15 0
BBX 13 17 1 0
BITMAP
0CC0
0CC0
0000
0200
0500
0500
0D00
0880
0880
1040
1040
3FE0
2020
4020
4010
4010
8008
ENDCHAR
STARTCHAR 00C5
ENCODING 197
SWIDTH 771 0
DWIDTH 15 0
BBX 13 19 1 0
BITMAP
0300
0480
0480
0300
0000
0200
0500
0500
0D00
0880
0880
1040
1040
3FE0
2020
4020
4010
4010
8008
ENDCHAR
STARTCHAR 00C6
ENCODING 198
SWIDTH 977 0
DWIDTH 19 0
BBX 17 14 0 0
BITMAP
00FF80
00C000
014000
014000
024000
044000
047F80
084000
1FC000
104000
204000
204000
404000
807F80
ENDCHAR
STARTCHAR 00C7
ENCODING 199
SWIDTH 771 0
DWIDTH 15 0
BBX 13 18 1 -4
BITMAP
0FC0
1030
2008
4000
8000
8000
8000
8000
8000
8000
4000
2008
1030
0FC0
0200
0300
0100
0E00
ENDCHAR
STARTCHAR 00C8
ENCODING 200
SWIDTH 514 0
DWIDTH 10 0
BBX 7 18 2 0
BITMAP
60
30
18
00
FE
80
80
80
80
80
FE
80
80
80
80
80
80
FE
ENDCHAR
STARTCHAR 00C9
ENCODING 201
SWIDTH 514 0
DWIDTH 10 0
BBX 7 18 2 0
BITMAP
0C
18
30
00
FE
80
80
80
80
80
FE
80
80
80
80
80
80
FE
ENDCHAR
STARTCHAR 00CA
ENCODING 202
SWIDTH 514 0
DWIDTH 10 0
BBX 7 18 2 0
BITMAP
30
48
84
00
FE
80
80
80
80
80
FE
80
80
80
80
80
80
FE
ENDCHAR
STARTCHAR 00CB
ENCODING 203
SWIDTH 514 0
DWIDTH 10 0
BBX 7 17 2 0
BITMAP
66
66
00
FE
80
80
80
80
80
FE
80
80
80
80
80
80
FE
ENDCHAR
STARTCHAR 00CC
ENCODING 204
SWIDTH 257 0
DWIDTH 5 0
BBX 4 18 -1 0
BITMAP
C0
60
30
00
10
10
10
10
10
10
10
10
10
10
10
10
10
10
ENDCHAR
STARTCHAR 00CD
ENCODING 205
SWIDTH 257 0
DWIDTH 5 0
BBX 4 18 2 0
BITMAP
30
60
C0
00
80
80
80
80
80
80
80
80
80
80
80
80
80
80
ENDCHAR
STARTCHAR 00CE
ENCODING 206
SWIDTH 257 0
DWIDTH 5 0
BBX 6 18 -1 0
BITMAP
30
48
84
00
10
10
10
10
10
10
10
10
10
10
10
10
10
10
ENDCHAR
STARTCHAR 00CF
ENCODING 207
SWIDTH 257 0
DWIDTH 5 0
BBX 6 17 0 0
BITMAP
CC
CC
00
20
20
20
20
20
20
20
20
20
20
20
20
20
20
ENDCHAR
STARTCHAR 00D0
ENCODING 208
SWIDTH 771 0
DWIDTH 15 0
BBX 14 14 0 0
BITMAP
3FC0
2020
2010
2008
2004
2004
2004
FE04
2004
2004
2008
2010
2020
3FC0
ENDCHAR
STARTCHAR 00D1
ENCODING 209
SWIDTH 720 0
DWIDTH 14 0
BBX 10 17 2 0
BITMAP
3900
2600
0000
8040
8040
C040
A040
9040
9040
8840
8440
8240
8240
8140
80C0
8040
8040
ENDCHAR
STARTCHAR 00D2
ENCODING 210
SWIDTH 874 0
DWIDTH 17 0
BBX 15 18 1 0
BITMAP
0600
0300
0180
0000
0FE0
1010
2008
4004
8002
8002
8002
8002
8002
8002
4004
2008
1010
0FE0
ENDCHAR
STARTCHAR 00D3
ENCODING 211
SWIDTH 874 0
DWIDTH 17 0
BBX 15 18 1 0
BITMAP
00C0
0180
0300
0000
0FE0
1010
2008
4004
8002
8002
8002
8002
8002
8002
4004
2008
1010
0FE0
ENDCHAR
STARTCHAR 00D4
ENCODING 212
SWIDTH 874 0
DWIDTH 17 0
BBX 15 18 1 0
BITMAP
0300
0480
0840
0000
0FE0
1010
2008
4004
8002
8002
8002
8002
8002
8002
4004
2008
1010
0FE0
ENDCHAR
STARTCHAR 00D5
ENCODING 213
SWIDTH 874 0
DWIDTH 17 0
BBX 15 17 1 0
BITMAP
0720
04C0
0000
0FE0
1010
2008
4004
8002
8002
8002
8002
8002
8002
4004
2008
1010
0FE0
ENDCHAR
STARTCHAR 00D6
ENCODING 214
SWIDTH 874 0
DWIDTH 17 0
BBX 15 17 1 0
BITMAP
0660
0660
0000
0FE0
1010
2008
4004
8002
8002
8002
8002
8002
8002
4004
2008
1010
0FE0
ENDCHAR
STARTCHAR 00D7
ENCODING 215
SWIDTH 565 0
DWIDTH 11 0
BBX 7 7 2 3
BITMAP
82
44
28
10
28
44
82
ENDCHAR
STARTCHAR 00D8
ENCODING 216
SWIDTH 874 0
DWIDTH 17 0
BBX 15 14 1 0
BITMAP
0FC6
103C
2018
4034
8062
80C2
8182
8302
8602
8C02
5804
3008
7810
87E0
ENDCHAR
STARTCHAR 00D9
ENCODING 217
SWIDTH 617 0
DWIDTH 12 0
BBX 8 18 2 0
BITMAP
60
30
18
00
81
81
81
81
81
81
81
81
81
81
81
81
42
3C
ENDCHAR
STARTCHAR 00DA
ENCODING 218
SWIDTH 617 0
DWIDTH 12 0
BBX 8 18 2 0
BITMAP
06
0C
18
00
81
81
81
81
81
81
81
81
81
81
81
81
42
3C
ENDCHAR
STARTCHAR 00DB
ENCODING 219
SWIDTH 617 0
DWIDTH 12 0
BBX 8 18 2 0
BITMAP
18
24
42
00
81
81
81
81
81
81
81
81
81
81
81
81
42
3C
ENDCHAR
STARTCHAR 00DC
ENCODING 220
SWIDTH 617 0
DWIDTH 12 0
BBX 8 17 2 0
BITMAP
66
66
00
81
81
81
81
81
81
81
81
81
81
81
81
42
3C
ENDCHAR
STARTCHAR 00DD
ENCODING 221
SWIDTH 565 0
DWIDTH 11 0
BBX 9 18 1 0
BITMAP
0600
0C00
1800
0000
8080
4100
4100
2200
2200
1400
1C00
0800
0800
0800
0800
0800
0800
0800
ENDCHAR
STARTCHAR 00DE
ENCODING 222
SWIDTH 565 0
DWIDTH 11 0
BBX 8 14 2 0
BITMAP
80
80
80
FC
82
81
81
81
81
82
FC
80
80
80
ENDCHAR
STARTCHAR 00DF
ENCODING 223
SWIDTH 565 0
DWIDTH 11 0
BBX 9 14 1 0
BITMAP
7F00
8080
8080
8080
8080
8080
9F00
8300
8080
8080
8080
8080
8080
BF00
ENDCHAR
STARTCHAR 00E0
ENCODING 224
SWIDTH 668 0
DWIDTH 13 0
BBX 11 14 1 0
BITMAP
1800
0C00
0600
0000
1F20
20A0
4060
8020
8020
8020
8020
4060
20A0
1F20
ENDCHAR
STARTCHAR 00E1
ENCODING 225
SWIDTH 668 0
DWIDTH 13 0
BBX 11 14 1 0
BITMAP
0300
0600
0C00
0000
1F20
20A0
4060
8020
8020
8020
8020
4060
20A0
1F20
ENDCHAR
STARTCHAR 00E2
ENCODING 226
SWIDTH 668 0
DWIDTH 13 0
BBX 11 14 1 0
BITMAP
0C00
1200
2100
0000
1F20
20A0
4060
8020
8020
8020
8020
4060
20A0
1F20
ENDCHAR
STARTCHAR 00E3
ENCODING 227
SWIDTH 668 0
DWIDTH 13 0
BBX 11 13 1 0
BITMAP
1C80
1300
0000
1F20
20A0
4060
8020
8020
8020
8020
4060
20A0
1F20
ENDCHAR
STARTCHAR 00E4
ENCODING 228
SWIDTH 668 0
DWIDTH 13 0
BBX 11 13 1 0
BITMAP
1980
1980
0000
1F20
20A0
4060
8020
8020
8020
8020
4060
20A0
1F20
ENDCHAR
STARTCHAR 00E5
ENCODING 229
SWIDTH 668 0
DWIDTH 13 0
BBX 11 15 1 0
BITMAP
0600
0900
0900
0600
0000
1F20
20A0
4060
8020
8020
8020
8020
4060
20A0
1F20
ENDCHAR
STARTCHAR 00E6
ENCODING 230
SWIDTH 1131 0
DWIDTH 22 0
BBX 20 10 1 0
BITMAP
1E4F80
215060
40E020
804010
807FF0
804000
804000
40E010
215020
1E4FC0
ENDCHAR
STARTCHAR 00E7
ENCODING 231
SWIDTH 617 0
DWIDTH 12 0
BBX 10 14 1 -4
BITMAP
1F00
2080
4040
8000
8000
8000
8000
4040
2080
1F00
0400
0600
0200
1C00
ENDCHAR
STARTCHAR 00E8
ENCODING 232
SWIDTH 617 0
DWIDTH 12 0
BBX 10 14 1 0
BITMAP
3000
1800
0C00
0000
1E00
2100
4080
8040
FFC0
8000
8000
4040
2080
1F00
ENDCHAR
STARTCHAR 00E9
ENCODING 233
SWIDTH 617 0
DWIDTH 12 0
BBX 10 14 1 0
BITMAP
0300
0600
0C00
0000
1E00
2100
4080
8040
FFC0
8000
8000
4040
2080
1F00
ENDCHAR
STARTCHAR 00EA
ENCODING 234
SWIDTH 617 0
DWIDTH 12 0
BBX 10 14 1 0
BITMAP
0C00
1200
2100
0000
1E00
2100
4080
8040
FFC0
8000
8000
4040
2080
1F00
ENDCHAR
STARTCHAR 00EB
ENCODING 235
SWIDTH 617 0
DWIDTH 12 0
BBX 10 13 1 0
BITMAP
3300
3300
0000
1E00
2100
4080
8040
FFC0
8000
8000
4040
2080
1F00
ENDCHAR
STARTCHAR 00EC
ENCODING 236
SWIDTH 154 0
DWIDTH 3 0
BBX 4 14 -2 0
BITMAP
C0
60
30
00
10
10
10
10
10
10
10
10
10
10
ENDCHAR
STARTCHAR 00ED
ENCODING 237
SWIDTH 154 0
DWIDTH 3 0
BBX 4 14 1 0
BITMAP
30
60
C0
00
80
80
80
80
80
80
80
80
80
80
ENDCHAR
STARTCHAR 00EE
ENCODING 238
SWIDTH 154 0
DWIDTH 3 0
BBX 6 14 -1 0
BITMAP
30
48
84
00
20
20
20
20
20
20
20
20
20
20
ENDCHAR
STARTCHAR 00EF
ENCODING 239
SWIDTH 154 0
DWIDTH 3 0
BBX 6 13 -1 0
BITMAP
CC
CC
00
20
20
20
20
20
20
20
20
20
20
ENDCHAR
STARTCHAR 00F0
ENCODING 240
SWIDTH 617 0
DWIDTH 12 0
BBX 10 14 1 0
BITMAP
0D00
0600
1B00
0100
1F80
2180
40C0
8040
8040
8040
8040
4080
2100
1E00
ENDCHAR
STARTCHAR 00F1
ENCODING 241
SWIDTH 617 0
DWIDTH 12 0
BBX 10 13 1 0
BITMAP
3900
2600
0000
9E00
A100
C080
8040
8040
8040
8040
8040
8040
8040
ENDCHAR
STARTCHAR 00F2
ENCODING 242
SWIDTH 617 0
DWIDTH 12 0
BBX 10 14 1 0
BITMAP
3000
1800
0C00
0000
1E00
2100
4080
8040
8040
8040
8040
4080
2100
1E00
ENDCHAR
STARTCHAR 00F3
ENCODING 243
SWIDTH 617 0
DWIDTH 12 0
BBX 10 14 1 0
BITMAP
0300
0600
0C00
0000
1E00
2100
4080
8040
8040
8040
8040
4080
2100
1E00
ENDCHAR
STARTCHAR 00F4
ENCODING 244
SWIDTH 617 0
DWIDTH 12 0
BBX 10 14 1 0
BITMAP
0C00
1200
2100
0000
1E00
2100
4080
8040
8040
8040
8040
4080
2100
1E00
ENDCHAR
STARTCHAR 00F5
ENCODING 245
SWIDTH 617 0
DWIDTH 12 0
BBX 10 13 1 0
BITMAP
3900
2600
0000
1E00
2100
4080
8040
8040
8040
8040
4080
2100
1E00
ENDCHAR
STARTCHAR 00F6
ENCODING 246
SWIDTH 617 0
DWIDTH 12 0
BBX 10 13 1 0
BITMAP
3300
3300
0000
1E00
2100
4080
8040
8040
8040
8040
4080
2100
1E00
ENDCHAR
STARTCHAR 00F7
ENCODING 247
SWIDTH 565 0
DWIDTH 11 0
BBX 10 9 0 2
BITMAP
0C00
0C00
0000
0000
FFC0
0000
0000
0C00
0C00
ENDCHAR
STARTCHAR 00F8
ENCODING 248
SWIDTH 617 0
DWIDTH 12 0
BBX 10 11 1 -1
BITMAP
1E40
2180
4180
8240
8440
8840
8840
5080
2100
5E00
8000
ENDCHAR
STARTCHAR 00F9
ENCODING 249
SWIDTH 617 0
DWIDTH 12 0
BBX 10 14 1 0
BITMAP
3000
1800
0C00
0000
8040
8040
8040
8040
8040
8040
8040
4080
2100
1E00
ENDCHAR
STARTCHAR 00FA
ENCODING 250
SWIDTH 617 0
DWIDTH 12 0
BBX 10 14 1 0
BITMAP
0300
0600
0C00
0000
8040
8040
8040
8040
8040
8040
8040
4080
2100
1E00
ENDCHAR
STARTCHAR 00FB
ENCODING 251
SWIDTH 617 0
DWIDTH 12 0
BBX 10 14 1 0
BITMAP
0C00
1200
2100
0000
8040
8040
8040
8040
8040
8040
8040
4080
2100
1E00
ENDCHAR
STARTCHAR 00FC
ENCODING 252
SWIDTH 617 0
DWIDTH 12 0
BBX 10 13 1 0
BITMAP
3300
3300
0000
8040
8040
8040
8040
8040
8040
8040
4080
2100
1E00
ENDCHAR
STARTCHAR 00FD
ENCODING 253
SWIDTH 565 0
DWIDTH 11 0
BBX 10 18 0 -4
BITMAP
0300
0600
0C00
0000
8040
4080
4080
2100
2100
1200
1200
0C00
0C00
0800
0800
1000
1000
2000
ENDCHAR
STARTCHAR 00FE
ENCODING 254
SWIDTH 668 0
DWIDTH 13 0
BBX 11 18 1 -4
BITMAP
8000
8000
8000
8000
9F00
A080
C040
8020
8020
8020
8020
C040
A080
9F00
8000
8000
8000
8000
ENDCHAR
STARTCHAR 00FF
ENCODING 255
SWIDTH 565 0
DWIDTH 11 0
BBX 10 17 0 -4
BITMAP
3300
3300
0000
8040
4080
4080
2100
2100
1200
1200
0C00
0C00
0800
0800
1000
1000
2000
ENDCHAR
STARTCHAR 0100
ENCODING 256
SWIDTH 771 0
DWIDTH 15 0
BBX 13 17 1 0
BITMAP
1F80
0000
0000
0200
0500
0500
0D00
0880
0880
1040
1040
3FE0
2020
4020
4010
4010
8008
ENDCHAR
STARTCHAR 0101
ENCODING 257
SWIDTH 668 0
DWIDTH 13 0
BBX 11 12 1 0
BITMAP
1F80
0000
1F20
20A0
4060
8020
8020
8020
8020
4060
20A0
1F20
ENDCHAR
STARTCHAR 0102
ENCODING 258
SWIDTH 771 0
DWIDTH 15 0
BBX 13 17 1 0
BITMAP
18C0
0F80
0000
0200
0500
0500
0D00
0880
0880
1040
1040
3FE0
2020
4020
4010
4010
8008
ENDCHAR
STARTCHAR 0103
ENCODING 259
SWIDTH 668 0
DWIDTH 13 0
BBX 11 13 1 0
BITMAP
3180
1F00
0000
1F20
20A0
4060
8020
8020
8020
8020
4060
20A0
1F20
ENDCHAR
STARTCHAR 0104
ENCODING 260
SWIDTH 771 0
DWIDTH 15 0
BBX 14 18 1 -4
BITMAP
0200
0500
0500
0D00
0880
0880
1040
1040
3FE0
2020
4020
4010
4010
8008
0008
0010
0010
000C
ENDCHAR
STARTCHAR 0105
ENCODING 261
SWIDTH 668 0
DWIDTH 13 0
BBX 12 14 1 -4
BITMAP
1F20
20A0
4060
8020
8020
8020
8020
4060
20A0
1F20
0020
0040
0040
0030
ENDCHAR
STARTCHAR 0106
ENCODING 262
SWIDTH 771 0
DWIDTH 15 0
BBX 13 18 1 0
BITMAP
0180
0300
0600
0000
0FC0
1030
2008
4000
8000
8000
8000
8000
8000
8000
4000
2008
1030
0FC0
ENDCHAR
STARTCHAR 0107
ENCODING 263
SWIDTH 617 0
DWIDTH 12 0
BBX 10 14 1 0
BITMAP
0300
0600
0C00
0000
1F00
2080
4040
8000
8000
8000
8000
4040
2080
1F00
ENDCHAR
STARTCHAR 0108
ENCODING 264
SWIDTH 771 0
DWIDTH 15 0
BBX 13 18 1 0
BITMAP
0300
0480
0840
0000
0FC0
1030
2008
4000
8000
8000
8000
8000
8000
8000
4000
2008
1030
0FC0
ENDCHAR
STARTCHAR 0109
ENCODING 265
SWIDTH 617 0
DWIDTH 12 0
BBX 10 14 1 0
BITMAP
0C00
1200
2100
0000
1F00
2080
4040
8000
8000
8000
8000
4040
2080
1F00
ENDCHAR
STARTCHAR 010A
ENCODING 266
SWIDTH 771 0
DWIDTH 15 0
BBX 13 17 1 0
BITMAP
0600
0600
0000
0FC0
1030
2008
4000
8000
8000
8000
8000
8000
8000
4000
2008
1030
0FC0
ENDCHAR
STARTCHAR 010B
ENCODING 267
SWIDTH 617 0
DWIDTH 12 0
BBX 10 13 1 0
BITMAP
0C00
0C00
0000
1F00
2080
4040
8000
8000
8000
8000
4040
2080
1F00
ENDCHAR
STARTCHAR 010C
ENCODING 268
SWIDTH 771 0
DWIDTH 15 0
BBX 13 18 1 0
BITMAP
1080
0900
0600
0000
0FC0
1030
2008
4000
8000
8000
8000
8000
8000
8000
4000
2008
1030
0FC0
ENDCHAR
STARTCHAR 010D
ENCODING 269
SWIDTH 617 0
DWIDTH 12 0
BBX 10 14 1 0
BITMAP
2100
1200
0C00
0000
1F00
2080
4040
8000
8000
8000
8000
4040
2080
1F00
ENDCHAR
STARTCHAR 010E
ENCODING 270
SWIDTH 720 0
DWIDTH 14 0
BBX 11 18 2 0
BITMAP
4200
2400
1800
0000
FE00
8100
8080
8040
8020
8020
8020
8020
8020
8020
8040
8080
8100
FE00
ENDCHAR
STARTCHAR 010F
ENCODING 271
SWIDTH 668 0
DWIDTH 13 0
BBX 13 14 1 0
BITMAP
0028
0028
0028
0028
1F20
20A0
4060
8020
8020
8020
8020
4060
20A0
1F20
ENDCHAR
STARTCHAR 0110
ENCODING 272
SWIDTH 771 0
DWIDTH 15 0
BBX 14 14 0 0
BITMAP
3FC0
2020
2010
2008
2004
2004
2004
FE04
2004
2004
2008
2010
2020
3FC0
ENDCHAR
STARTCHAR 0111
ENCODING 273
SWIDTH 668 0
DWIDTH 13 0
BBX 12 14 1 0
BITMAP
0020
0020
01F0
0020
1F20
20A0
4060
8020
8020
8020
8020
4060
20A0
1F20
ENDCHAR
STARTCHAR 0112
ENCODING 274
SWIDTH 514 0
DWIDTH 10 0
BBX 7 17 2 0
BITMAP
7E
00
00
FE
80
80
80
80
80
FE
80
80
80
80
80
80
FE
ENDCHAR
STARTCHAR 0113
ENCODING 275
SWIDTH 617 0
DWIDTH 12 0
BBX 10 14 1 0
BITMAP
3F00
0000
0000
0000
1E00
2100
4080
8040
FFC0
8000
8000
4040
2080
1F00
ENDCHAR
STARTCHAR 0114
ENCODING 276
SWIDTH 514 0
DWIDTH 10 0
BBX 7 17 2 0
BITMAP
C6
7C
00
FE
80
80
80
80
80
FE
80
80
80
80
80
80
FE
ENDCHAR
STARTCHAR 0115
ENCODING 277
SWIDTH 617 0
DWIDTH 12 0
BBX 10 13 1 0
BITMAP
6300
3E00
0000
1E00
2100
4080
8040
FFC0
8000
8000
4040
2080
1F00
ENDCHAR
STARTCHAR 0116
ENCODING 278
SWIDTH 514 0
DWIDTH 10 0
BBX 7 17 2 0
BITMAP
18
18
00
FE
80
80
80
80
80
FE
80
80
80
80
80
80
FE
ENDCHAR
STARTCHAR 0117
ENCODING 279
SWIDTH 617 0
DWIDTH 12 0
BBX 10 13 1 0
BITMAP
0C00
0C00
0000
1E00
2100
4080
8040
FFC0
8000
8000
4040
2080
1F00
ENDCHAR
STARTCHAR 0118
ENCODING 280
SWIDTH 514 0
DWIDTH 10 0
BBX 7 18 2 -4
BITMAP
FE
80
80
80
80
80
FE
80
80
80
80
80
80
FE
04
08
08
06
ENDCHAR
STARTCHAR 0119
ENCODING 281
SWIDTH 617 0
DWIDTH 12 0
BBX 10 14 1 -4
BITMAP
1E00
2100
4080
8040
FFC0
8000
8000
4040
2080
1F00
0400
0800
0800
0600
ENDCHAR
STARTCHAR 011A
ENCODING 282
SWIDTH 514 0
DWIDTH 10 0
BBX 7 18 2 0
BITMAP
84
48
30
00
FE
80
80
80
80
80
FE
80
80
80
80
80
80
FE
ENDCHAR
STARTCHAR 011B
ENCODING 283
SWIDTH 617 0
DWIDTH 12 0
BBX 10 14 1 0
BITMAP
2100
1200
0C00
0000
1E00
2100
4080
8040
FFC0
8000
8000
4040
2080
1F00
ENDCHAR
STARTCHAR 011C
ENCODING 284
SWIDTH 874 0
DWIDTH 17 0
BBX 15 18 1 0
BITMAP
0180
0240
0420
0000
0FE0
1038
2004
4000
8000
8000
8000
807E
8002
8002
4004
2008
1010
0FE0
ENDCHAR
STARTCHAR 011D
ENCODING 285
SWIDTH 668 0
DWIDTH 13 0
BBX 11 18 1 -4
BITMAP
0C00
1200
2100
0000
1F20
20A0
4060
8020
8020
8020
8020
4060
20A0
1F20
0020
8040
4080
3F00
ENDCHAR
STARTCHAR 011E
ENCODING 286
SWIDTH 874 0
DWIDTH 17 0
BBX 15 17 1 0
BITMAP
0C60
07C0
0000
0FE0
1038
2004
4000
8000
8000
8000
807E
8002
8002
4004
2008
1010
0FE0
ENDCHAR
STARTCHAR 011F
ENCODING 287
SWIDTH 668 0
DWIDTH 13 0
BBX 11 17 1 -4
BITMAP
3180
1F00
0000
1F20
20A0
4060
8020
8020
8020
8020
4060
20A0
1F20
0020
8040
4080
3F00
ENDCHAR
STARTCHAR 0120
ENCODING 288
SWIDTH 874 0
DWIDTH 17 0
BBX 15 17 1 0
BITMAP
0180
0180
0000
0FE0
1038
2004
4000
8000
8000
8000
807E
8002
8002
4004
2008
1010
0FE0
ENDCHAR
STARTCHAR 0121
ENCODING 289
SWIDTH 668 0
DWIDTH 13 0
BBX 11 17 1 -4
BITMAP
0600
0600
0000
1F20
20A0
4060
8020
8020
8020
8020
4060
20A0
1F20
0020
8040
4080
3F00
ENDCHAR
STARTCHAR 0122
ENCODING 290
SWIDTH 874 0
DWIDTH 17 0
BBX 15 18 1 -4
BITMAP
0FE0
1038
2004
4000
8000
8000
8000
807E
8002
8002
4004
2008
1010
0FE0
0100
0180
0080
0700
ENDCHAR
STARTCHAR 0123
ENCODING 291
SWIDTH 668 0
DWIDTH 13 0
BBX 11 21 1 -4
BITMAP
0400
0800
0800
0C00
0C00
0C00
0000
1F20
20A0
4060
8020
8020
8020
8020
4060
20A0
1F20
0020
8040
4080
3F00
ENDCHAR
STARTCHAR 0124
ENCODING 292
SWIDTH 668 0
DWIDTH 13 0
BBX 9 18 2 0
BITMAP
0C00
1200
2100
0000
8080
8080
8080
8080
8080
8080
FF80
8080
8080
8080
8080
8080
8080
8080
ENDCHAR
STARTCHAR 0125
ENCODING 293
SWIDTH 617 0
DWIDTH 12 0
BBX 10 18 1 0
BITMAP
0C00
1200
2100
0000
8000
8000
8000
8000
9E00
A100
C080
8040
8040
8040
8040
8040
8040
8040
ENDCHAR
STARTCHAR 0126
ENCODING 294
SWIDTH 668 0
DWIDTH 13 0
BBX 11 14 1 0
BITMAP
4040
4040
4040
FFE0
4040
4040
7FC0
4040
4040
4040
4040
4040
4040
4040
ENDCHAR
STARTCHAR 0127
ENCODING 295
SWIDTH 617 0
DWIDTH 12 0
BBX 11 14 0 0
BITMAP
4000
4000
F800
4000
4F80
5040
6020
4020
4020
4020
4020
4020
4020
4020
ENDCHAR
STARTCHAR 0128
ENCODING 296
SWIDTH 257 0
DWIDTH 5 0
BBX 6 17 0 0
BITMAP
E4
98
00
20
20
20
20
20
20
20
20
20
20
20
20
20
20
ENDCHAR
STARTCHAR 0129
ENCODING 297
SWIDTH 154 0
DWIDTH 3 0
BBX 6 13 -2 0
BITMAP
E4
98
00
10
10
10
10
10
10
10
10
10
10
ENDCHAR
STARTCHAR 012A
ENCODING 298
SWIDTH 257 0
DWIDTH 5 0
BBX 6 17 0 0
BITMAP
FC
00
00
20
20
20
20
20
20
20
20
20
20
20
20
20
20
ENDCHAR
STARTCHAR 012B
ENCODING 299
SWIDTH 154 0
DWIDTH 3 0
BBX 6 14 -1 0
BITMAP
FC
00
00
00
20
20
20
20
20
20
20
20
20
20
ENDCHAR
STARTCHAR 012C
ENCODING 300
SWIDTH 257 0
DWIDTH 5 0
BBX 7 17 -1 0
BITMAP
C6
7C
00
10
10
10
10
10
10
10
10
10
10
10
10
10
10
ENDCHAR
STARTCHAR 012D
ENCODING 301
SWIDTH 154 0
DWIDTH 3 0
BBX 7 13 -2 0
BITMAP
C6
7C
00
10
10
10
10
10
10
10
10
10
10
ENDCHAR
STARTCHAR 012E
ENCODING 302
SWIDTH 257 0
DWIDTH 5 0
BBX 3 18 1 -4
BITMAP
40
40
40
40
40
40
40
40
40
40
40
40
40
40
40
80
80
60
ENDCHAR
STARTCHAR 012F
ENCODING 303
SWIDTH 154 0
DWIDTH 3 0
BBX 3 18 0 -4
BITMAP
40
40
00
00
40
40
40
40
40
40
40
40
40
40
40
80
80
60
ENDCHAR
STARTCHAR 0130
ENCODING 304
SWIDTH 257 0
DWIDTH 5 0
BBX 2 17 2 0
BITMAP
C0
C0
00
80
80
80
80
80
80
80
80
80
80
80
80
80
80
ENDCHAR
STARTCHAR 0131
ENCODING 305
SWIDTH 154 0
DWIDTH 3 0
BBX 1 10 1 0
BITMAP
80
80
80
80
80
80
80
80
80
80
ENDCHAR
STARTCHAR 0132
ENCODING 306
SWIDTH 668 0
DWIDTH 13 0
BBX 9 14 2 0
BITMAP
8080
8080
8080
8080
8080
8080
8080
8080
8080
8080
8080
8080
9900
8E00
ENDCHAR
STARTCHAR 0133
ENCODING 307
SWIDTH 411 0
DWIDTH 8 0
BBX 6 18 1 -4
BITMAP
84
84
00
00
84
84
84
84
84
84
84
84
84
84
04
04
04
1C
ENDCHAR
STARTCHAR 0134
ENCODING 308
SWIDTH 462 0
DWIDTH 9 0
BBX 7 18 1 0
BITMAP
18
24
42
00
04
04
04
04
04
04
04
04
04
04
04
04
88
70
ENDCHAR
STARTCHAR 0135
ENCODING 309
SWIDTH 154 0
DWIDTH 3 0
BBX 6 19 -1 -4
BITMAP
30
48
84
00
00
20
20
20
20
20
20
20
20
20
20
20
20
20
E0
ENDCHAR
STARTCHAR 0136
ENCODING 310
SWIDTH 565 0
DWIDTH 11 0
BBX 8 17 2 -3
BITMAP
82
84
88
90
A0
C0
C0
A0
90
88
84
84
82
81
18
08
30
ENDCHAR
STARTCHAR 0137
ENCODING 311
SWIDTH 514 0
DWIDTH 10 0
BBX 8 17 1 -3
BITMAP
80
80
80
80
81
82
8C
90
A0
E0
90
8C
82
81
18
08
30
ENDCHAR
STARTCHAR 0138
ENCODING 312
SWIDTH 514 0
DWIDTH 10 0
BBX 8 10 1 0
BITMAP
81
82
8C
90
E0
E0
90
8C
82
81
ENDCHAR
STARTCHAR 0139
ENCODING 313
SWIDTH 462 0
DWIDTH 9 0
BBX 6 18 2 0
BITMAP
18
30
60
00
80
80
80
80
80
80
80
80
80
80
80
80
80
FC
ENDCHAR
STARTCHAR 013A
ENCODING 314
SWIDTH 154 0
DWIDTH 3 0
BBX 4 18 0 0
BITMAP
30
60
C0
00
40
40
40
40
40
40
40
40
40
40
40
40
40
40
ENDCHAR
STARTCHAR 013B
ENCODING 315
SWIDTH 462 0
DWIDTH 9 0
BBX 6 17 2 -3
BITMAP
80
80
80
80
80
80
80
80
80
80
80
80
80
FC
30
10
60
ENDCHAR
STARTCHAR 013C
ENCODING 316
SWIDTH 154 0
DWIDTH 3 0
BBX 2 15 0 -1
BITMAP
40
40
40
40
40
40
40
40
40
40
40
40
40
40
C0
ENDCHAR
STARTCHAR 013D
ENCODING 317
SWIDTH 462 0
DWIDTH 9 0
BBX 6 14 2 0
BITMAP
B0
B0
B0
90
90
A0
80
80
80
80
80
80
80
FC
ENDCHAR
STARTCHAR 013E
ENCODING 318
SWIDTH 205 0
DWIDTH 4 0
BBX 3 14 1 0
BITMAP
A0
A0
A0
A0
80
80
80
80
80
80
80
80
80
80
ENDCHAR
STARTCHAR 013F
ENCODING 319
SWIDTH 462 0
DWIDTH 9 0
BBX 6 14 2 0
BITMAP
80
80
80
80
80
80
98
98
80
80
80
80
80
FC
ENDCHAR
STARTCHAR 0140
ENCODING 320
SWIDTH 257 0
DWIDTH 5 0
BBX 4 14 1 0
BITMAP
80
80
80
80
80
80
B0
B0
80
80
80
80
80
80
ENDCHAR
STARTCHAR 0141
ENCODING 321
SWIDTH 514 0
DWIDTH 10 0
BBX 9 14 0 0
BITMAP
2000
2000
2000
2000
2400
2800
3000
2000
6000
A000
2000
2000
2000
3F80
ENDCHAR
STARTCHAR 0142
ENCODING 322
SWIDTH 308 0
DWIDTH 6 0
BBX 5 14 0 0
BITMAP
20
20
20
20
28
30
60
A0
20
20
20
20
20
20
ENDCHAR
STARTCHAR 0143
ENCODING 323
SWIDTH 720 0
DWIDTH 14 0
BBX 10 18 2 0
BITMAP
0600
0C00
1800
0000
8040
8040
C040
A040
9040
9040
8840
8440
8240
8240
8140
80C0
8040
8040
ENDCHAR
STARTCHAR 0144
ENCODING 324
SWIDTH 617 0
DWIDTH 12 0
BBX 10 14 1 0
BITMAP
0600
0C00
1800
0000
9E00
A100
C080
8040
8040
8040
8040
8040
8040
8040
ENDCHAR
STARTCHAR 0145
ENCODING 325
SWIDTH 720 0
DWIDTH 14 0
BBX 10 17 2 -3
BITMAP
8040
8040
C040
A040
9040
9040
8840
8440
8240
8240
8140
80C0
8040
8040
0C00
0400
1800
ENDCHAR
STARTCHAR 0146
ENCODING 326
SWIDTH 617 0
DWIDTH 12 0
BBX 10 13 1 -3
BITMAP
9E00
A100
C080
8040
8040
8040
8040
8040
8040
8040
0C00
0400
1800
ENDCHAR
STARTCHAR 0147
ENCODING 327
SWIDTH 720 0
DWIDTH 14 0
BBX 10 18 2 0
BITMAP
2100
1200
0C00
0000
8040
8040
C040
A040
9040
9040
8840
8440
8240
8240
8140
80C0
8040
8040
ENDCHAR
STARTCHAR 0148
ENCODING 328
SWIDTH 617 0
DWIDTH 12 0
BBX 10 14 1 0
BITMAP
2100
1200
0C00
0000
9E00
A100
C080
8040
8040
8040
8040
8040
8040
8040
ENDCHAR
STARTCHAR 0149
ENCODING 329
SWIDTH 617 0
DWIDTH 12 0
BBX 13 14 -2 0
BITMAP
C000
C000
C000
4000
53C0
9420
1810
1008
1008
1008
1008
1008
1008
1008
ENDCHAR
STARTCHAR 014A
ENCODING 330
SWIDTH 771 0
DWIDTH 15 0
BBX 12 14 2 0
BITMAP
9F00
A0C0
C060
8020
8010
8010
8010
8010
8010
8010
8020
8020
98C0
8780
ENDCHAR
STARTCHAR 014B
ENCODING 331
SWIDTH 617 0
DWIDTH 12 0
BBX 10 14 1 -4
BITMAP
9F00
A080
C040
8040
8040
8040
8040
8040
8040
8040
0040
0040
0040
01C0
ENDCHAR
STARTCHAR 014C
ENCODING 332
SWIDTH 874 0
DWIDTH 17 0
BBX 15 17 1 0
BITMAP
07E0
0000
0000
0FE0
1010
2008
4004
8002
8002
8002
8002
8002
8002
4004
2008
1010
0FE0
ENDCHAR
STARTCHAR 014D
ENCODING 333
SWIDTH 617 0
DWIDTH 12 0
BBX 10 14 1 0
BITMAP
3F00
0000
0000
0000
1E00
2100
4080
8040
8040
8040
8040
4080
2100
1E00
ENDCHAR
STARTCHAR 014E
ENCODING 334
SWIDTH 874 0
DWIDTH 17 0
BBX 15 17 1 0
BITMAP
0C60
07C0
0000
0FE0
1010
2008
4004
8002
8002
8002
8002
8002
8002
4004
2008
1010
0FE0
ENDCHAR
STARTCHAR 014F
ENCODING 335
SWIDTH 617 0
DWIDTH 12 0
BBX 10 13 1 0
BITMAP
6300
3E00
0000
1E00
2100
4080
8040
8040
8040
8040
4080
2100
1E00
ENDCHAR
STARTCHAR 0150
ENCODING 336
SWIDTH 874 0
DWIDTH 17 0
BBX 15 18 1 0
BITMAP
01B0
0360
06C0
0000
0FE0
1010
2008
4004
8002
8002
8002
8002
8002
8002
4004
2008
1010
0FE0
ENDCHAR
STARTCHAR 0151
ENCODING 337
SWIDTH 617 0
DWIDTH 12 0
BBX 10 14 1 0
BITMAP
06C0
0D80
1B00
0000
1E00
2100
4080
8040
8040
8040
8040
4080
2100
1E00
ENDCHAR
STARTCHAR 0152
ENCODING 338
SWIDTH 1182 0
DWIDTH 23 0
BBX 21 14 1 0
BITMAP
0FC7F8
102400
201400
400C00
800400
800400
8007F8
800400
800400
800400
400C00
201400
102400
0FC7F8
ENDCHAR
STARTCHAR 0153
ENCODING 339
SWIDTH 1131 0
DWIDTH 22 0
BBX 20 10 1 0
BITMAP
1E0F80
211040
40E020
804010
807FF0
804000
804000
40E010
211020
1E0FC0
ENDCHAR
STARTCHAR 0154
ENCODING 340
SWIDTH 617 0
DWIDTH 12 0
BBX 9 18 2 0
BITMAP
0C00
1800
3000
0000
FE00
8100
8080
8080
8080
8100
FE00
9000
8800
8400
8400
8200
8100
8080
ENDCHAR
STARTCHAR 0155
ENCODING 341
SWIDTH 308 0
DWIDTH 6 0
BBX 5 14 1 0
BITMAP
30
60
C0
00
98
A0
C0
80
80
80
80
80
80
80
ENDCHAR
STARTCHAR 0156
ENCODING 342
SWIDTH 617 0
DWIDTH 12 0
BBX 9 17 2 -3
BITMAP
FE00
8100
8080
8080
8080
8100
FE00
9000
8800
8400
8400
8200
8100
8080
1800
0800
3000
ENDCHAR
STARTCHAR 0157
ENCODING 343
SWIDTH 308 0
DWIDTH 6 0
BBX 5 13 1 -3
BITMAP
98
A0
C0
80
80
80
80
80
80
80
60
20
C0
ENDCHAR
STARTCHAR 0158
ENCODING 344
SWIDTH 617 0
DWIDTH 12 0
BBX 9 18 2 0
BITMAP
4200
2400
1800
0000
FE00
8100
8080
8080
8080
8100
FE00
9000
8800
8400
8400
8200
8100
8080
ENDCHAR
STARTCHAR 0159
ENCODING 345
SWIDTH 308 0
DWIDTH 6 0
BBX 7 15 -1 0
BITMAP
84
48
30
00
00
26
28
30
20
20
20
20
20
20
20
ENDCHAR
STARTCHAR 015A
ENCODING 346
SWIDTH 462 0
DWIDTH 9 0
BBX 8 18 0 0
BITMAP
06
0C
18
00
1C
22
41
40
20
10
08
04
02
01
81
41
42
3C
ENDCHAR
STARTCHAR 015B
ENCODING 347
SWIDTH 360 0
DWIDTH 7 0
BBX 6 14 0 0
BITMAP
18
30
60
00
78
84
80
80
60
18
04
04
84
78
ENDCHAR
STARTCHAR 015C
ENCODING 348
SWIDTH 462 0
DWIDTH 9 0
BBX 8 18 0 0
BITMAP
0C
12
21
00
1C
22
41
40
20
10
08
04
02
01
81
41
42
3C
ENDCHAR
STARTCHAR 015D
ENCODING 349
SWIDTH 360 0
DWIDTH 7 0
BBX 6 14 0 0
BITMAP
30
48
84
00
78
84
80
80
60
18
04
04
84
78
ENDCHAR
STARTCHAR 015E
ENCODING 350
SWIDTH 462 0
DWIDTH 9 0
BBX 8 18 0 -4
BITMAP
1C
22
41
40
20
10
08
04
02
01
81
41
42
3C
08
0C
04
38
ENDCHAR
STARTCHAR 015F
ENCODING 351
SWIDTH 360 0
DWIDTH 7 0
BBX 6 14 0 -4
BITMAP
78
84
80
80
60
18
04
04
84
78
10
18
08
70
ENDCHAR
STARTCHAR 0160
ENCODING 352
SWIDTH 462 0
DWIDTH 9 0
BBX 8 18 0 0
BITMAP
42
24
18
00
1C
22
41
40
20
10
08
04
02
01
81
41
42
3C
ENDCHAR
STARTCHAR 0161
ENCODING 353
SWIDTH 360 0
DWIDTH 7 0
BBX 6 14 0 0
BITMAP
84
48
30
00
78
84
80
80
60
18
04
04
84
78
ENDCHAR
STARTCHAR 0162
ENCODING 354
SWIDTH 411 0
DWIDTH 8 0
BBX 7 17 0 -3
BITMAP
FE
10
10
10
10
10
10
10
10
10
10
10
10
10
00
10
10
ENDCHAR
STARTCHAR 0163
ENCODING 355
SWIDTH 360 0
DWIDTH 7 0
BBX 5 17 1 -3
BITMAP
20
20
20
20
F8
20
20
20
20
20
20
20
20
20
00
20
20
ENDCHAR
STARTCHAR 0164
ENCODING 356
SWIDTH 411 0
DWIDTH 8 0
BBX 7 18 0 0
BITMAP
84
48
30
00
FE
10
10
10
10
10
10
10
10
10
10
10
10
10
ENDCHAR
STARTCHAR 0165
ENCODING 357
SWIDTH 360 0
DWIDTH 7 0
BBX 5 14 1 0
BITMAP
28
28
28
28
F8
20
20
20
20
20
20
20
20
20
ENDCHAR
STARTCHAR 0166
ENCODING 358
SWIDTH 411 0
DWIDTH 8 0
BBX 7 14 0 0
BITMAP
FE
10
10
10
10
10
10
FE
10
10
10
10
10
10
ENDCHAR
STARTCHAR 0167
ENCODING 359
SWIDTH 308 0
DWIDTH 6 0
BBX 5 14 0 0
BITMAP
20
20
20
20
F8
20
20
20
F8
20
20
20
20
20
ENDCHAR
STARTCHAR 0168
ENCODING 360
SWIDTH 617 0
DWIDTH 12 0
BBX 8 17 2 0
BITMAP
72
4C
00
81
81
81
81
81
81
81
81
81
81
81
81
42
3C
ENDCHAR
STARTCHAR 0169
ENCODING 361
SWIDTH 617 0
DWIDTH 12 0
BBX 10 13 1 0
BITMAP
3900
2600
0000
8040
8040
8040
8040
8040
8040
8040
4080
2100
1E00
ENDCHAR
STARTCHAR 016A
ENCODING 362
SWIDTH 617 0
DWIDTH 12 0
BBX 8 17 2 0
BITMAP
7E
00
00
81
81
81
81
81
81
81
81
81
81
81
81
42
3C
ENDCHAR
STARTCHAR 016B
ENCODING 363
SWIDTH 617 0
DWIDTH 12 0
BBX 10 14 1 0
BITMAP
3F00
0000
0000
0000
8040
8040
8040
8040
8040
8040
8040
4080
2100
1E00
ENDCHAR
STARTCHAR 016C
ENCODING 364
SWIDTH 617 0
DWIDTH 12 0
BBX 8 17 2 0
BITMAP
C6
7C
00
81
81
81
81
81
81
81
81
81
81
81
81
42
3C
ENDCHAR
STARTCHAR 016D
ENCODING 365
SWIDTH 617 0
DWIDTH 12 0
BBX 10 13 1 0
BITMAP
3180
1F00
0000
8040
8040
8040
8040
8040
8040
8040
4080
2100
1E00
ENDCHAR
STARTCHAR 016E
ENCODING 366
SWIDTH 617 0
DWIDTH 12 0
BBX 8 19 2 0
BITMAP
18
24
24
18
00
81
81
81
81
81
81
81
81
81
81
81
81
42
3C
ENDCHAR
STARTCHAR 016F
ENCODING 367
SWIDTH 617 0
DWIDTH 12 0
BBX 10 15 1 0
BITMAP
0C00
1200
1200
0C00
0000
8040
8040
8040
8040
8040
8040
8040
4080
2100
1E00
ENDCHAR
STARTCHAR 0170
ENCODING 368
SWIDTH 617 0
DWIDTH 12 0
BBX 9 18 2 0
BITMAP
0D80
1B00
3600
0000
8100
8100
8100
8100
8100
8100
8100
8100
8100
8100
8100
8100
4200
3C00
ENDCHAR
STARTCHAR 0171
ENCODING 369
SWIDTH 617 0
DWIDTH 12 0
BBX 10 14 1 0
BITMAP
0D80
1B00
3600
0000
8040
8040
8040
8040
8040
8040
8040
4080
2100
1E00
ENDCHAR
STARTCHAR 0172
ENCODING 370
SWIDTH 617 0
DWIDTH 12 0
BBX 8 18 2 -4
BITMAP
81
81
81
81
81
81
81
81
81
81
81
81
42
3C
08
10
10
0C
ENDCHAR
STARTCHAR 0173
ENCODING 371
SWIDTH 617 0
DWIDTH 12 0
BBX 10 14 1 -4
BITMAP
8040
8040
8040
8040
8040
8040
8040
4080
2100
1E00
0400
0800
0800
0600
ENDCHAR
STARTCHAR 0174
ENCODING 372
SWIDTH 874 0
DWIDTH 17 0
BBX 15 18 1 0
BITMAP
0180
0240
0420
0000
8102
8102
4284
4284
4284
4444
4444
2448
2828
2828
2828
2838
1010
1010
ENDCHAR
STARTCHAR 0175
ENCODING 373
SWIDTH 822 0
DWIDTH 16 0
BBX 15 14 0 0
BITMAP
0180
0240
0420
0000
8102
4104
4284
4284
2288
2448
1450
1450
1450
0820
ENDCHAR
STARTCHAR 0176
ENCODING 374
SWIDTH 565 0
DWIDTH 11 0
BBX 9 18 1 0
BITMAP
0C00
1200
2100
0000
8080
4100
4100
2200
2200
1400
1C00
0800
0800
0800
0800
0800
0800
0800
ENDCHAR
STARTCHAR 0177
ENCODING 375
SWIDTH 565 0
DWIDTH 11 0
BBX 10 18 0 -4
BITMAP
0C00
1200
2100
0000
8040
4080
4080
2100
2100
1200
1200
0C00
0C00
0800
0800
1000
1000
2000
ENDCHAR
STARTCHAR 0178
ENCODING 376
SWIDTH 565 0
DWIDTH 11 0
BBX 9 17 1 0
BITMAP
3300
3300
0000
8080
4100
4100
2200
2200
1400
1C00
0800
0800
0800
0800
0800
0800
0800
ENDCHAR
STARTCHAR 0179
ENCODING 377
SWIDTH 462 0
DWIDTH 9 0
BBX 7 18 1 0
BITMAP
18
30
60
00
FE
04
04
08
08
08
10
10
20
20
40
40
40
FE
ENDCHAR
STARTCHAR 017A
ENCODING 378
SWIDTH 411 0
DWIDTH 8 0
BBX 8 14 0 0
BITMAP
0C
18
30
00
FF
02
04
04
08
10
20
20
40
FF
ENDCHAR
STARTCHAR 017B
ENCODING 379
SWIDTH 462 0
DWIDTH 9 0
BBX 7 17 1 0
BITMAP
30
30
00
FE
04
04
08
08
08
10
10
20
20
40
40
40
FE
ENDCHAR
STARTCHAR 017C
ENCODING 380
SWIDTH 411 0
DWIDTH 8 0
BBX 8 13 0 0
BITMAP
18
18
00
FF
02
04
04
08
10
20
20
40
FF
ENDCHAR
STARTCHAR 017D
ENCODING 381
SWIDTH 462 0
DWIDTH 9 0
BBX 7 18 1 0
BITMAP
84
48
30
00
FE
04
04
08
08
08
10
10
20
20
40
40
40
FE
ENDCHAR
STARTCHAR 017E
ENCODING 382
SWIDTH 411 0
DWIDTH 8 0
BBX 8 14 0 0
BITMAP
42
24
18
00
FF
02
04
04
08
10
20
20
40
FF
ENDCHAR
STARTCHAR 017F
ENCODING 383
SWIDTH 154 0
DWIDTH 3 0
BBX 3 14 1 0
BITMAP
60
80
80
80
80
80
80
80
80
80
80
80
80
80
ENDCHAR
STARTCHAR 0192
ENCODING 402
SWIDTH 565 0
DWIDTH 11 0
BBX 9 18 0 -4
BITMAP
0380
0400
0400
0400
0400
0800
1F00
0800
0800
0800
0800
1000
1000
1000
1000
1000
2000
C000
ENDCHAR
STARTCHAR 01FA
ENCODING 506
SWIDTH 771 0
DWIDTH 15 0
BBX 13 22 1 0
BITMAP
0180
0300
0600
0000
0000
0300
0480
0480
0300
0500
0500
0D00
0880
0880
1040
1040
3FE0
2020
4020
4010
4010
8008
ENDCHAR
STARTCHAR 01FB
ENCODING 507
SWIDTH 668 0
DWIDTH 13 0
BBX 11 21 1 0
BITMAP
0600
0C00
1800
0000
0000
0600
0900
0900
0600
0000
0000
1F20
20A0
4060
8020
8020
8020
8020
4060
20A0
1F20
ENDCHAR
STARTCHAR 01FC
ENCODING 508
SWIDTH 977 0
DWIDTH 19 0
BBX 17 18 0 0
BITMAP
001800
003000
006000
000000
00FF80
00C000
014000
014000
024000
044000
047F80
084000
1FC000
104000
204000
204000
404000
807F80
ENDCHAR
STARTCHAR 01FD
ENCODING 509
SWIDTH 1131 0
DWIDTH 22 0
BBX 20 14 1 0
BITMAP
003000
006000
00C000
000000
1E4F80
215060
40E020
804010
807FF0
804000
804000
40E010
215020
1E4FC0
ENDCHAR
STARTCHAR 01FE
ENCODING 510
SWIDTH 874 0
DWIDTH 17 0
BBX 15 18 1 0
BITMAP
00C0
0180
0300
0000
0FC6
103C
2018
4034
8062
80C2
8182
8302
8602
8C02
5804
3008
7810
87E0
ENDCHAR
STARTCHAR 01FF
ENCODING 511
SWIDTH 617 0
DWIDTH 12 0
BBX 10 15 1 -1
BITMAP
0600
0C00
1800
0000
1E40
2180
4180
8240
8440
8840
8840
5080
2100
5E00
8000
ENDCHAR
STARTCHAR 02C6
ENCODING 710
SWIDTH 462 0
DWIDTH 9 0
BBX 6 3 1 12
BITMAP
30
48
84
ENDCHAR
STARTCHAR 02C7
ENCODING 711
SWIDTH 462 0
DWIDTH 9 0
BBX 6 3 1 12
BITMAP
84
48
30
ENDCHAR
STARTCHAR 02C9
ENCODING 713
SWIDTH 462 0
DWIDTH 9 0
BBX 6 1 1 13
BITMAP
FC
ENDCHAR
STARTCHAR 02D8
ENCODING 728
SWIDTH 462 0
DWIDTH 9 0
BBX 7 2 1 12
BITMAP
C6
7C
ENDCHAR
STARTCHAR 02D9
ENCODING 729
SWIDTH 205 0
DWIDTH 4 0
BBX 2 2 1 12
BITMAP
C0
C0
ENDCHAR
STARTCHAR 02DA
ENCODING 730
SWIDTH 308 0
DWIDTH 6 0
BBX 4 4 1 12
BITMAP
60
90
90
60
ENDCHAR
STARTCHAR 02DB
ENCODING 731
SWIDTH 308 0
DWIDTH 6 0
BBX 3 4 2 -4
BITMAP
40
80
80
60
ENDCHAR
STARTCHAR 02DC
ENCODING 732
SWIDTH 411 0
DWIDTH 8 0
BBX 6 2 1 12
BITMAP
E4
98
ENDCHAR
STARTCHAR 02DD
ENCODING 733
SWIDTH 514 0
DWIDTH 10 0
BBX 7 3 3 12
BITMAP
36
6C
D8
ENDCHAR
STARTCHAR 037E
ENCODING 894
SWIDTH 257 0
DWIDTH 5 0
BBX 3 11 1 -1
BITMAP
60
60
00
00
00
00
00
60
40
40
80
ENDCHAR
STARTCHAR 0384
ENCODING 900
SWIDTH 360 0
DWIDTH 7 0
BBX 2 3 3 12
BITMAP
C0
C0
80
ENDCHAR
STARTCHAR 0385
ENCODING 901
SWIDTH 360 0
DWIDTH 7 0
BBX 8 3 0 12
BITMAP
18
DB
D3
ENDCHAR
STARTCHAR 0386
ENCODING 902
SWIDTH 771 0
DWIDTH 15 0
BBX 13 14 1 0
BITMAP
1A00
1500
0500
0D00
0880
0880
1040
1040
3FE0
2020
4020
4010
4010
8008
ENDCHAR
STARTCHAR 0387
ENCODING 903
SWIDTH 257 0
DWIDTH 5 0
BBX 2 2 2 8
BITMAP
C0
C0
ENDCHAR
STARTCHAR 0388
ENCODING 904
SWIDTH 565 0
DWIDTH 11 0
BBX 11 14 -1 0
BITMAP
CFE0
8800
8800
0800
0800
0800
0FE0
0800
0800
0800
0800
0800
0800
0FE0
ENDCHAR
STARTCHAR 0389
ENCODING 905
SWIDTH 720 0
DWIDTH 14 0
BBX 13 14 -1 0
BITMAP
C808
8808
8808
0808
0808
0808
0FF8
0808
0808
0808
0808
0808
0808
0808
ENDCHAR
STARTCHAR 038A
ENCODING 906
SWIDTH 257 0
DWIDTH 5 0
BBX 4 14 -1 0
BITMAP
D0
90
10
10
10
10
10
10
10
10
10
10
10
10
ENDCHAR
STARTCHAR 038C
ENCODING 908
SWIDTH 874 0
DWIDTH 17 0
BBX 17 14 -1 0
BITMAP
C3F800
840400
880200
100100
200080
200080
200080
200080
200080
200080
100100
080200
040400
03F800
ENDCHAR
STARTCHAR 038E
ENCODING 910
SWIDTH 617 0
DWIDTH 12 0
BBX 12 14 -1 0
BITMAP
D010
8820
0820
0440
0440
0280
0380
0100
0100
0100
0100
0100
0100
0100
ENDCHAR
STARTCHAR 038F
ENCODING 911
SWIDTH 822 0
DWIDTH 16 0
BBX 16 14 -1 0
BITMAP
C3F0
8408
8804
1002
2001
2001
2001
2001
2001
1002
0804
0408
0330
3F3F
ENDCHAR
STARTCHAR 0390
ENCODING 912
SWIDTH 154 0
DWIDTH 3 0
BBX 6 15 1 0
BITMAP
60
4C
4C
00
00
80
80
80
80
80
80
80
80
80
80
ENDCHAR
STARTCHAR 0391
ENCODING 913
SWIDTH 771 0
DWIDTH 15 0
BBX 13 14 1 0
BITMAP
0200
0500
0500
0D00
0880
0880
1040
1040
3FE0
2020
4020
4010
4010
8008
ENDCHAR
STARTCHAR 0392
ENCODING 914
SWIDTH 565 0
DWIDTH 11 0
BBX 8 14 2 0
BITMAP
F8
84
82
82
82
84
FC
82
81
81
81
81
82
FC
ENDCHAR
STARTCHAR 0393
ENCODING 915
SWIDTH 462 0
DWIDTH 9 0
BBX 7 14 2 0
BITMAP
FE
80
80
80
80
80
80
80
80
80
80
80
80
80
ENDCHAR
STARTCHAR 0394
ENCODING 916
SWIDTH 720 0
DWIDTH 14 0
BBX 13 14 1 0
BITMAP
0200
0500
0500
0880
0880
0880
1040
1040
2020
2020
4010
4010
8008
FFF8
ENDCHAR
STARTCHAR 0395
ENCODING 917
SWIDTH 514 0
DWIDTH 10 0
BBX 7 14 2 0
BITMAP
FE
80
80
80
80
80
FE
80
80
80
80
80
80
FE
ENDCHAR
STARTCHAR 0396
ENCODING 918
SWIDTH 462 0
DWIDTH 9 0
BBX 7 14 1 0
BITMAP
FE
04
04
08
08
08
10
10
20
20
40
40
40
FE
ENDCHAR
STARTCHAR 0397
ENCODING 919
SWIDTH 668 0
DWIDTH 13 0
BBX 9 14 2 0
BITMAP
8080
8080
8080
8080
8080
8080
FF80
8080
8080
8080
8080
8080
8080
8080
ENDCHAR
STARTCHAR 0398
ENCODING 920
SWIDTH 874 0
DWIDTH 17 0
BBX 15 14 1 0
BITMAP
0FE0
1010
2008
4004
8002
8002
8FE2
8002
8002
8002
4004
2008
1010
0FE0
ENDCHAR
STARTCHAR 0399
ENCODING 921
SWIDTH 257 0
DWIDTH 5 0
BBX 1 14 2 0
BITMAP
80
80
80
80
80
80
80
80
80
80
80
80
80
80
ENDCHAR
STARTCHAR 039A
ENCODING 922
SWIDTH 565 0
DWIDTH 11 0
BBX 8 14 2 0
BITMAP
82
84
88
90
A0
C0
C0
A0
90
88
84
84
82
81
ENDCHAR
STARTCHAR 039B
ENCODING 923
SWIDTH 668 0
DWIDTH 13 0
BBX 13 14 0 0
BITMAP
0200
0500
0500
0D00
0880
0880
1040
1040
2020
2020
6020
4010
4010
8008
ENDCHAR
STARTCHAR 039C
ENCODING 924
SWIDTH 874 0
DWIDTH 17 0
BBX 15 14 1 0
BITMAP
2008
2008
5014
5014
5014
4824
4824
4444
4444
4444
8282
8282
8282
8102
ENDCHAR
STARTCHAR 039D
ENCODING 925
SWIDTH 720 0
DWIDTH 14 0
BBX 10 14 2 0
BITMAP
8040
8040
C040
A040
9040
9040
8840
8440
8240
8240
8140
80C0
8040
8040
ENDCHAR
STARTCHAR 039E
ENCODING 926
SWIDTH 514 0
DWIDTH 10 0
BBX 8 14 1 0
BITMAP
FF
00
00
00
00
00
FF
00
00
00
00
00
00
FF
ENDCHAR
STARTCHAR 039F
ENCODING 927
SWIDTH 874 0
DWIDTH 17 0
BBX 15 14 1 0
BITMAP
0FE0
1010
2008
4004
8002
8002
8002
8002
8002
8002
4004
2008
1010
0FE0
ENDCHAR
STARTCHAR 03A0
ENCODING 928
SWIDTH 668 0
DWIDTH 13 0
BBX 9 14 2 0
BITMAP
FF80
8080
8080
8080
8080
8080
8080
8080
8080
8080
8080
8080
8080
8080
ENDCHAR
STARTCHAR 03A1
ENCODING 929
SWIDTH 565 0
DWIDTH 11 0
BBX 8 14 2 0
BITMAP
FC
82
81
81
81
82
FC
80
80
80
80
80
80
80
ENDCHAR
STARTCHAR 03A3
ENCODING 931
SWIDTH 514 0
DWIDTH 10 0
BBX 8 14 1 0
BITMAP
FF
40
40
20
20
10
08
08
10
20
20
40
40
FF
ENDCHAR
STARTCHAR 03A4
ENCODING 932
SWIDTH 411 0
DWIDTH 8 0
BBX 7 14 0 0
BITMAP
FE
10
10
10
10
10
10
10
10
10
10
10
10
10
ENDCHAR
STARTCHAR 03A5
ENCODING 933
SWIDTH 565 0
DWIDTH 11 0
BBX 9 14 1 0
BITMAP
8080
4100
4100
2200
2200
1400
1C00
0800
0800
0800
0800
0800
0800
0800
ENDCHAR
STARTCHAR 03A6
ENCODING 934
SWIDTH 771 0
DWIDTH 15 0
BBX 13 14 1 0
BITMAP
0200
1FC0
2220
4210
8208
8208
8208
8208
8208
8208
4210
2220
1FC0
0200
ENDCHAR
STARTCHAR 03A7
ENCODING 935
SWIDTH 617 0
DWIDTH 12 0
BBX 11 14 0 0
BITMAP
8020
4040
4040
2080
1100
0A00
0400
0400
0A00
1100
2080
4040
4040
8020
ENDCHAR
STARTCHAR 03A8
ENCODING 936
SWIDTH 771 0
DWIDTH 15 0
BBX 13 14 1 0
BITMAP
8208
8208
8208
8208
8208
8208
8208
8208
4210
2220
1FC0
0200
0200
0200
ENDCHAR
STARTCHAR 03A9
ENCODING 937
SWIDTH 822 0
DWIDTH 16 0
BBX 14 14 1 0
BITMAP
0FC0
1020
2010
4008
8004
8004
8004
8004
8004
4008
2010
1020
0CC0
FCFC
ENDCHAR
STARTCHAR 03AA
ENCODING 938
SWIDTH 257 0
DWIDTH 5 0
BBX 6 17 0 0
BITMAP
CC
CC
00
20
20
20
20
20
20
20
20
20
20
20
20
20
20
ENDCHAR
STARTCHAR 03AB
ENCODING 939
SWIDTH 565 0
DWIDTH 11 0
BBX 9 17 1 0
BITMAP
3300
3300
0000
8080
4100
4100
2200
2200
1400
1C00
0800
0800
0800
0800
0800
0800
0800
ENDCHAR
STARTCHAR 03AC
ENCODING 940
SWIDTH 668 0
DWIDTH 13 0
BBX 11 15 1 0
BITMAP
0600
0600
0400
0000
0000
1F20
20A0
4060
8020
8020
8020
8020
4060
20A0
1F20
ENDCHAR
STARTCHAR 03AD
ENCODING 941
SWIDTH 411 0
DWIDTH 8 0
BBX 6 15 1 0
BITMAP
18
18
10
00
00
78
84
80
80
70
80
80
80
84
78
ENDCHAR
STARTCHAR 03AE
ENCODING 942
SWIDTH 617 0
DWIDTH 12 0
BBX 10 19 1 -4
BITMAP
0600
0600
0400
0000
0000
9E00
A100
C080
8040
8040
8040
8040
8040
8040
8040
0040
0040
0040
0040
ENDCHAR
STARTCHAR 03AF
ENCODING 943
SWIDTH 154 0
DWIDTH 3 0
BBX 3 15 1 0
BITMAP
60
40
00
00
00
80
80
80
80
80
80
80
80
80
80
ENDCHAR
STARTCHAR 03B0
ENCODING 944
SWIDTH 565 0
DWIDTH 11 0
BBX 9 15 1 0
BITMAP
1800
D300
C300
0000
0000
8600
8100
8100
8080
8080
8080
8080
4100
2200
1C00
ENDCHAR
STARTCHAR 03B1
ENCODING 945
SWIDTH 668 0
DWIDTH 13 0
BBX 11 10 1 0
BITMAP
1F20
20A0
4060
8020
8020
8020
8020
4060
20A0
1F20
ENDCHAR
STARTCHAR 03B2
ENCODING 946
SWIDTH 565 0
DWIDTH 11 0
BBX 9 18 1 -4
BITMAP
7C00
8200
8200
8200
8200
8400
BC00
8200
8100
8080
8080
8100
C200
BC00
8000
8000
8000
8000
ENDCHAR
STARTCHAR 03B3
ENCODING 947
SWIDTH 565 0
DWIDTH 11 0
BBX 9 14 1 -4
BITMAP
8080
4100
4100
2200
2200
1400
1400
0800
0800
0800
0800
0800
0800
0800
ENDCHAR
STARTCHAR 03B4
ENCODING 948
SWIDTH 565 0
DWIDTH 11 0
BBX 9 14 1 0
BITMAP
0F00
1000
2000
2000
2000
1E00
6100
8080
8080
8080
8080
8080
4100
3E00
ENDCHAR
STARTCHAR 03B5
ENCODING 949
SWIDTH 411 0
DWIDTH 8 0
BBX 6 10 1 0
BITMAP
78
84
80
80
70
80
80
80
84
78
ENDCHAR
STARTCHAR 03B6
ENCODING 950
SWIDTH 462 0
DWIDTH 9 0
BBX 8 18 1 -4
BITMAP
7F
02
04
08
10
20
40
80
80
80
80
80
60
1E
01
01
01
1E
ENDCHAR
STARTCHAR 03B7
ENCODING 951
SWIDTH 617 0
DWIDTH 12 0
BBX 10 14 1 -4
BITMAP
9E00
A100
C080
8040
8040
8040
8040
8040
8040
8040
0040
0040
0040
0040
ENDCHAR
STARTCHAR 03B8
ENCODING 952
SWIDTH 617 0
DWIDTH 12 0
BBX 10 14 1 0
BITMAP
1E00
2100
4080
8040
8040
8040
FFC0
8040
8040
8040
8040
4080
2100
1E00
ENDCHAR
STARTCHAR 03B9
ENCODING 953
SWIDTH 154 0
DWIDTH 3 0
BBX 1 10 1 0
BITMAP
80
80
80
80
80
80
80
80
80
80
ENDCHAR
STARTCHAR 03BA
ENCODING 954
SWIDTH 514 0
DWIDTH 10 0
BBX 8 10 1 0
BITMAP
81
82
8C
90
E0
E0
90
8C
82
81
ENDCHAR
STARTCHAR 03BB
ENCODING 955
SWIDTH 514 0
DWIDTH 10 0
BBX 10 14 0 0
BITMAP
2000
1000
1000
0800
0800
0C00
1400
1200
2200
2100
4100
4080
8080
8040
ENDCHAR
STARTCHAR 03BC
ENCODING 956
SWIDTH 617 0
DWIDTH 12 0
BBX 10 14 1 -4
BITMAP
8040
8040
8040
8040
8040
8040
8040
80C0
C140
BE40
8000
8000
8000
8000
ENDCHAR
STARTCHAR 03BD
ENCODING 957
SWIDTH 668 0
DWIDTH 13 0
BBX 11 10 1 0
BITMAP
8020
4040
4040
2080
2080
1100
1100
0A00
0A00
0400
ENDCHAR
STARTCHAR 03BE
ENCODING 958
SWIDTH 462 0
DWIDTH 9 0
BBX 8 18 1 -4
BITMAP
1F
20
40
40
40
20
1E
60
80
80
80
80
60
1E
01
01
01
1E
ENDCHAR
STARTCHAR 03BF
ENCODING 959
SWIDTH 617 0
DWIDTH 12 0
BBX 10 10 1 0
BITMAP
1E00
2100
4080
8040
8040
8040
8040
4080
2100
1E00
ENDCHAR
STARTCHAR 03C0
ENCODING 960
SWIDTH 668 0
DWIDTH 13 0
BBX 11 10 1 0
BITMAP
FFE0
2080
2080
2080
2080
2080
2080
2080
2080
2080
ENDCHAR
STARTCHAR 03C1
ENCODING 961
SWIDTH 668 0
DWIDTH 13 0
BBX 11 14 1 -4
BITMAP
1F00
2080
4040
8020
8020
8020
8020
C040
A080
9F00
8000
8000
8000
8000
ENDCHAR
STARTCHAR 03C2
ENCODING 962
SWIDTH 565 0
DWIDTH 11 0
BBX 9 14 1 -4
BITMAP
1E00
2100
4080
8000
8000
8000
8000
4000
2000
1E00
0100
0100
0100
1E00
ENDCHAR
STARTCHAR 03C3
ENCODING 963
SWIDTH 720 0
DWIDTH 14 0
BBX 12 10 1 0
BITMAP
1FF0
2100
4080
8040
8040
8040
8040
4080
2100
1E00
ENDCHAR
STARTCHAR 03C4
ENCODING 964
SWIDTH 411 0
DWIDTH 8 0
BBX 6 10 1 0
BITMAP
FC
20
20
20
20
20
20
20
20
20
ENDCHAR
STARTCHAR 03C5
ENCODING 965
SWIDTH 565 0
DWIDTH 11 0
BBX 9 10 1 0
BITMAP
8600
8100
8100
8080
8080
8080
8080
4100
2200
1C00
ENDCHAR
STARTCHAR 03C6
ENCODING 966
SWIDTH 771 0
DWIDTH 15 0
BBX 13 14 1 -4
BITMAP
0BC0
3220
4210
8208
8208
8208
8208
4210
2220
1FC0
0200
0200
0200
0200
ENDCHAR
STARTCHAR 03C7
ENCODING 967
SWIDTH 462 0
DWIDTH 9 0
BBX 9 14 0 -4
BITMAP
8080
4100
4100
2200
2200
1400
0800
0800
1400
2200
2200
4100
4100
8080
ENDCHAR
STARTCHAR 03C8
ENCODING 968
SWIDTH 720 0
DWIDTH 14 0
BBX 12 14 1 -4
BITMAP
8410
8410
8410
8410
8410
8410
8410
8410
6460
1F80
0400
0400
0400
0400
ENDCHAR
STARTCHAR 03C9
ENCODING 969
SWIDTH 822 0
DWIDTH 16 0
BBX 14 10 1 0
BITMAP
0CC0
3030
4008
8004
8204
8204
8204
8204
4508
38F0
ENDCHAR
STARTCHAR 03CA
ENCODING 970
SWIDTH 154 0
DWIDTH 3 0
BBX 6 13 -1 0
BITMAP
CC
CC
00
20
20
20
20
20
20
20
20
20
20
ENDCHAR
STARTCHAR 03CB
ENCODING 971
SWIDTH 565 0
DWIDTH 11 0
BBX 9 14 1 0
BITMAP
3300
3300
0000
0000
8600
8100
8100
8080
8080
8080
8080
4100
2200
1C00
ENDCHAR
STARTCHAR 03CC
ENCODING 972
SWIDTH 617 0
DWIDTH 12 0
BBX 10 15 1 0
BITMAP
0C00
0C00
0800
0000
0000
1E00
2100
4080
8040
8040
8040
8040
4080
2100
1E00
ENDCHAR
STARTCHAR 03CD
ENCODING 973
SWIDTH 565 0
DWIDTH 11 0
BBX 9 15 1 0
BITMAP
1800
1800
1000
0000
0000
8600
8100
8100
8080
8080
8080
8080
4100
2200
1C00
ENDCHAR
STARTCHAR 03CE
ENCODING 974
SWIDTH 822 0
DWIDTH 16 0
BBX 14 15 1 0
BITMAP
0300
0300
0200
0000
0000
0CC0
3030
4008
8004
8204
8204
8204
8204
4508
38F0
ENDCHAR
STARTCHAR 0401
ENCODING 1025
SWIDTH 514 0
DWIDTH 10 0
BBX 7 17 2 0
BITMAP
66
66
00
FE
80
80
80
80
80
FE
80
80
80
80
80
80
FE
ENDCHAR
STARTCHAR 0402
ENCODING 1026
SWIDTH 668 0
DWIDTH 13 0
BBX 12 14 0 0
BITMAP
FE00
1000
1000
1000
1000
1000
1FC0
1020
1010
1010
1010
1010
1220
11C0
ENDCHAR
STARTCHAR 0403
ENCODING 1027
SWIDTH 462 0
DWIDTH 9 0
BBX 7 18 2 0
BITMAP
0C
18
30
00
FE
80
80
80
80
80
80
80
80
80
80
80
80
80
ENDCHAR
STARTCHAR 0404
ENCODING 1028
SWIDTH 771 0
DWIDTH 15 0
BBX 13 14 1 0
BITMAP
0FC0
1030
2008
4000
8000
8000
FF00
8000
8000
8000
4000
2008
1030
0FC0
ENDCHAR
STARTCHAR 0405
ENCODING 1029
SWIDTH 462 0
DWIDTH 9 0
BBX 8 14 0 0
BITMAP
1C
22
41
40
20
10
08
04
02
01
81
41
42
3C
ENDCHAR
STARTCHAR 0406
ENCODING 1030
SWIDTH 257 0
DWIDTH 5 0
BBX 1 14 2 0
BITMAP
80
80
80
80
80
80
80
80
80
80
80
80
80
80
ENDCHAR
STARTCHAR 0407
ENCODING 1031
SWIDTH 257 0
DWIDTH 5 0
BBX 6 17 0 0
BITMAP
CC
CC
00
20
20
20
20
20
20
20
20
20
20
20
20
20
20
ENDCHAR
STARTCHAR 0408
ENCODING 1032
SWIDTH 462 0
DWIDTH 9 0
BBX 6 14 1 0
BITMAP
04
04
04
04
04
04
04
04
04
04
04
04
88
70
ENDCHAR
STARTCHAR 0409
ENCODING 1033
SWIDTH 1028 0
DWIDTH 20 0
BBX 19 14 0 0
BITMAP
020000
050000
050000
088000
088000
088000
107F80
104040
202020
202020
401020
401020
801040
800F80
ENDCHAR
STARTCHAR 040A
ENCODING 1034
SWIDTH 1028 0
DWIDTH 20 0
BBX 17 14 2 0
BITMAP
804000
804000
804000
804000
804000
804000
FFFE00
804100
804080
804080
804080
804080
804100
807E00
ENDCHAR
STARTCHAR 040B
ENCODING 1035
SWIDTH 668 0
DWIDTH 13 0
BBX 12 14 0 0
BITMAP
FE00
1000
1000
1000
1000
1000
1FC0
1020
1010
1010
1010
1010
1010
1010
ENDCHAR
STARTCHAR 040C
ENCODING 1036
SWIDTH 565 0
DWIDTH 11 0
BBX 8 18 2 0
BITMAP
06
0C
18
00
82
84
88
90
A0
C0
C0
A0
90
88
84
84
82
81
ENDCHAR
STARTCHAR 040E
ENCODING 1038
SWIDTH 617 0
DWIDTH 12 0
BBX 10 17 1 0
BITMAP
6300
3E00
0000
8040
8040
4080
4080
2080
2100
1100
1A00
0A00
0600
0400
0400
8800
7000
ENDCHAR
STARTCHAR 040F
ENCODING 1039
SWIDTH 617 0
DWIDTH 12 0
BBX 8 16 2 -2
BITMAP
81
81
81
81
81
81
81
81
81
81
81
81
81
FF
10
10
ENDCHAR
STARTCHAR 0410
ENCODING 1040
SWIDTH 771 0
DWIDTH 15 0
BBX 13 14 1 0
BITMAP
0200
0500
0500
0D00
0880
0880
1040
1040
3FE0
2020
4020
4010
4010
8008
ENDCHAR
STARTCHAR 0411
ENCODING 1041
SWIDTH 565 0
DWIDTH 11 0
BBX 8 14 2 0
BITMAP
FE
80
80
80
80
80
FC
82
81
81
81
81
82
FC
ENDCHAR
STARTCHAR 0412
ENCODING 1042
SWIDTH 565 0
DWIDTH 11 0
BBX 8 14 2 0
BITMAP
F8
84
82
82
82
84
FC
82
81
81
81
81
82
FC
ENDCHAR
STARTCHAR 0413
ENCODING 1043
SWIDTH 462 0
DWIDTH 9 0
BBX 7 14 2 0
BITMAP
FE
80
80
80
80
80
80
80
80
80
80
80
80
80
ENDCHAR
STARTCHAR 0414
ENCODING 1044
SWIDTH 720 0
DWIDTH 14 0
BBX 14 16 0 -2
BITMAP
0300
0300
0300
0480
0480
0840
0840
0840
1020
1020
2010
2010
2010
FFFC
8004
8004
ENDCHAR
STARTCHAR 0415
ENCODING 1045
SWIDTH 514 0
DWIDTH 10 0
BBX 7 14 2 0
BITMAP
FE
80
80
80
80
80
FE
80
80
80
80
80
80
FE
ENDCHAR
STARTCHAR 0416
ENCODING 1046
SWIDTH 925 0
DWIDTH 18 0
BBX 15 14 1 0
BITMAP
4104
2108
1110
1910
0920
0540
0380
0540
0920
1130
1110
2108
4104
8102
ENDCHAR
STARTCHAR 0417
ENCODING 1047
SWIDTH 565 0
DWIDTH 11 0
BBX 9 14 1 0
BITMAP
3C00
4200
0100
0100
0100
0200
1C00
0300
0080
0080
0080
8080
4100
3E00
ENDCHAR
STARTCHAR 0418
ENCODING 1048
SWIDTH 720 0
DWIDTH 14 0
BBX 10 14 2 0
BITMAP
8040
8040
80C0
8140
8240
8240
8440
8840
9040
9040
A040
C040
8040
8040
ENDCHAR
STARTCHAR 0419
ENCODING 1049
SWIDTH 720 0
DWIDTH 14 0
BBX 10 17 2 0
BITMAP
6300
3E00
0000
8040
8040
80C0
8140
8240
8240
8440
8840
9040
9040
A040
C040
8040
8040
ENDCHAR
STARTCHAR 041A
ENCODING 1050
SWIDTH 565 0
DWIDTH 11 0
BBX 8 14 2 0
BITMAP
82
84
88
90
A0
C0
C0
A0
90
88
84
84
82
81
ENDCHAR
STARTCHAR 041B
ENCODING 1051
SWIDTH 668 0
DWIDTH 13 0
BBX 13 14 0 0
BITMAP
0200
0500
0500
0D00
0880
0880
1040
1040
2020
2020
6020
4010
4010
8008
ENDCHAR
STARTCHAR 041C
ENCODING 1052
SWIDTH 874 0
DWIDTH 17 0
BBX 15 14 1 0
BITMAP
2008
2008
5014
5014
5014
4824
4824
4444
4444
4444
8282
8282
8282
8102
ENDCHAR
STARTCHAR 041D
ENCODING 1053
SWIDTH 668 0
DWIDTH 13 0
BBX 9 14 2 0
BITMAP
8080
8080
8080
8080
8080
8080
FF80
8080
8080
8080
8080
8080
8080
8080
ENDCHAR
STARTCHAR 041E
ENCODING 1054
SWIDTH 874 0
DWIDTH 17 0
BBX 15 14 1 0
BITMAP
0FE0
1010
2008
4004
8002
8002
8002
8002
8002
8002
4004
2008
1010
0FE0
ENDCHAR
STARTCHAR 041F
ENCODING 1055
SWIDTH 668 0
DWIDTH 13 0
BBX 9 14 2 0
BITMAP
FF80
8080
8080
8080
8080
8080
8080
8080
8080
8080
8080
8080
8080
8080
ENDCHAR
STARTCHAR 0420
ENCODING 1056
SWIDTH 565 0
DWIDTH 11 0
BBX 8 14 2 0
BITMAP
FC
82
81
81
81
82
FC
80
80
80
80
80
80
80
ENDCHAR
STARTCHAR 0421
ENCODING 1057
SWIDTH 771 0
DWIDTH 15 0
BBX 13 14 1 0
BITMAP
0FC0
1030
2008
4000
8000
8000
8000
8000
8000
8000
4000
2008
1030
0FC0
ENDCHAR
STARTCHAR 0422
ENCODING 1058
SWIDTH 411 0
DWIDTH 8 0
BBX 7 14 0 0
BITMAP
FE
10
10
10
10
10
10
10
10
10
10
10
10
10
ENDCHAR
STARTCHAR 0423
ENCODING 1059
SWIDTH 617 0
DWIDTH 12 0
BBX 10 14 1 0
BITMAP
8040
8040
4080
4080
2080
2100
1100
1A00
0A00
0600
0400
0400
8800
7000
ENDCHAR
STARTCHAR 0424
ENCODING 1060
SWIDTH 874 0
DWIDTH 17 0
BBX 15 14 1 0
BITMAP
0100
0100
3FF8
4104
8102
8102
8102
8102
4104
3FF8
0100
0100
0100
0100
ENDCHAR
STARTCHAR 0425
ENCODING 1061
SWIDTH 617 0
DWIDTH 12 0
BBX 11 14 0 0
BITMAP
8020
4040
4040
2080
1100
0A00
0400
0400
0A00
1100
2080
4040
4040
8020
ENDCHAR
STARTCHAR 0426
ENCODING 1062
SWIDTH 668 0
DWIDTH 13 0
BBX 11 16 2 -2
BITMAP
8080
8080
8080
8080
8080
8080
8080
8080
8080
8080
8080
8080
8080
FFE0
0020
0020
ENDCHAR
STARTCHAR 0427
ENCODING 1063
SWIDTH 514 0
DWIDTH 10 0
BBX 8 14 0 0
BITMAP
81
81
81
81
81
41
3F
01
01
01
01
01
01
01
ENDCHAR
STARTCHAR 0428
ENCODING 1064
SWIDTH 977 0
DWIDTH 19 0
BBX 15 14 2 0
BITMAP
8102
8102
8102
8102
8102
8102
8102
8102
8102
8102
8102
8102
8102
FFFE
ENDCHAR
STARTCHAR 0429
ENCODING 1065
SWIDTH 1028 0
DWIDTH 20 0
BBX 18 16 2 -2
BITMAP
810200
810200
810200
810200
810200
810200
810200
810200
810200
810200
810200
810200
810200
FFFFC0
000040
000040
ENDCHAR
STARTCHAR 042A
ENCODING 1066
SWIDTH 668 0
DWIDTH 13 0
BBX 12 14 0 0
BITMAP
F000
1000
1000
1000
1000
1000
1FC0
1020
1010
1010
1010
1010
1020
1FC0
ENDCHAR
STARTCHAR 042B
ENCODING 1067
SWIDTH 771 0
DWIDTH 15 0
BBX 11 14 2 0
BITMAP
8020
8020
8020
8020
8020
8020
FC20
8220
8120
8120
8120
8120
8220
FC20
ENDCHAR
STARTCHAR 042C
ENCODING 1068
SWIDTH 617 0
DWIDTH 12 0
BBX 9 14 2 0
BITMAP
8000
8000
8000
8000
8000
8000
FE00
8100
8080
8080
8080
8080
8100
FE00
ENDCHAR
STARTCHAR 042D
ENCODING 1069
SWIDTH 771 0
DWIDTH 15 0
BBX 13 14 1 0
BITMAP
1F80
6040
8020
0010
0008
0008
07F8
0008
0008
0008
0010
8020
6040
1F80
ENDCHAR
STARTCHAR 042E
ENCODING 1070
SWIDTH 1080 0
DWIDTH 21 0
BBX 18 14 2 0
BITMAP
80FC00
810200
820100
840080
880040
880040
F80040
880040
880040
880040
840080
820100
810200
80FC00
ENDCHAR
STARTCHAR 042F
ENCODING 1071
SWIDTH 565 0
DWIDTH 11 0
BBX 9 14 0 0
BITMAP
3F80
4080
8080
8080
8080
4080
3F80
0480
0880
1080
1080
2080
4080
8080
ENDCHAR
STARTCHAR 0430
ENCODING 1072
SWIDTH 668 0
DWIDTH 13 0
BBX 11 10 1 0
BITMAP
1F20
20A0
4060
8020
8020
8020
8020
4060
20A0
1F20
ENDCHAR
STARTCHAR 0431
ENCODING 1073
SWIDTH 668 0
DWIDTH 13 0
BBX 11 14 1 0
BITMAP
0FC0
3000
4000
C000
9F00
A080
C040
8020
8020
8020
8020
4040
2080
1F00
ENDCHAR
STARTCHAR 0432
ENCODING 1074
SWIDTH 462 0
DWIDTH 9 0
BBX 7 10 1 0
BITMAP
F8
84
84
84
F8
84
82
82
82
FC
ENDCHAR
STARTCHAR 0433
ENCODING 1075
SWIDTH 360 0
DWIDTH 7 0
BBX 6 10 1 0
BITMAP
FC
80
80
80
80
80
80
80
80
80
ENDCHAR
STARTCHAR 0434
ENCODING 1076
SWIDTH 617 0
DWIDTH 12 0
BBX 12 12 0 -2
BITMAP
0600
0600
0900
0900
0900
1080
1080
2040
2040
FFF0
8010
8010
ENDCHAR
STARTCHAR 0435
ENCODING 1077
SWIDTH 617 0
DWIDTH 12 0
BBX 10 10 1 0
BITMAP
1E00
2100
4080
8040
FFC0
8000
8000
4040
2080
1F00
ENDCHAR
STARTCHAR 0436
ENCODING 1078
SWIDTH 771 0
DWIDTH 15 0
BBX 13 10 1 0
BITMAP
4210
2220
1240
0A80
0F80
0A80
1240
2220
4210
8208
ENDCHAR
STARTCHAR 0437
ENCODING 1079
SWIDTH 411 0
DWIDTH 8 0
BBX 7 10 0 0
BITMAP
7C
82
02
02
1C
02
02
02
82
7C
ENDCHAR
STARTCHAR 0438
ENCODING 1080
SWIDTH 617 0
DWIDTH 12 0
BBX 10 10 1 0
BITMAP
8040
80C0
8140
8240
8440
8840
9040
A040
C040
8040
ENDCHAR
STARTCHAR 0439
ENCODING 1081
SWIDTH 617 0
DWIDTH 12 0
BBX 10 13 1 0
BITMAP
6300
3E00
0000
8040
80C0
8140
8240
8440
8840
9040
A040
C040
8040
ENDCHAR
STARTCHAR 043A
ENCODING 1082
SWIDTH 514 0
DWIDTH 10 0
BBX 8 10 1 0
BITMAP
82
84
88
90
A0
E0
90
88
86
81
ENDCHAR
STARTCHAR 043B
ENCODING 1083
SWIDTH 514 0
DWIDTH 10 0
BBX 10 10 0 0
BITMAP
0C00
0C00
1200
1200
2100
2100
4080
4080
8040
8040
ENDCHAR
STARTCHAR 043C
ENCODING 1084
SWIDTH 874 0
DWIDTH 17 0
BBX 15 10 1 0
BITMAP
1010
2828
2828
2828
444C
4444
4284
4284
8282
8102
ENDCHAR
STARTCHAR 043D
ENCODING 1085
SWIDTH 565 0
DWIDTH 11 0
BBX 9 10 1 0
BITMAP
8080
8080
8080
8080
FF80
8080
8080
8080
8080
8080
ENDCHAR
STARTCHAR 043E
ENCODING 1086
SWIDTH 617 0
DWIDTH 12 0
BBX 10 10 1 0
BITMAP
1E00
2100
4080
8040
8040
8040
8040
4080
2100
1E00
ENDCHAR
STARTCHAR 043F
ENCODING 1087
SWIDTH 565 0
DWIDTH 11 0
BBX 9 10 1 0
BITMAP
FF80
8080
8080
8080
8080
8080
8080
8080
8080
8080
ENDCHAR
STARTCHAR 0440
ENCODING 1088
SWIDTH 668 0
DWIDTH 13 0
BBX 11 14 1 -4
BITMAP
9F00
A080
C040
8020
8020
8020
8020
C040
A080
9F00
8000
8000
8000
8000
ENDCHAR
STARTCHAR 0441
ENCODING 1089
SWIDTH 617 0
DWIDTH 12 0
BBX 10 10 1 0
BITMAP
1F00
2080
4040
8000
8000
8000
8000
4040
2080
1F00
ENDCHAR
STARTCHAR 0442
ENCODING 1090
SWIDTH 360 0
DWIDTH 7 0
BBX 5 10 1 0
BITMAP
F8
20
20
20
20
20
20
20
20
20
ENDCHAR
STARTCHAR 0443
ENCODING 1091
SWIDTH 565 0
DWIDTH 11 0
BBX 10 14 0 -4
BITMAP
8040
4080
4080
2100
2100
1200
1200
0C00
0C00
0800
0800
1000
1000
2000
ENDCHAR
STARTCHAR 0444
ENCODING 1092
SWIDTH 1080 0
DWIDTH 21 0
BBX 19 18 1 -4
BITMAP
004000
004000
004000
004000
1E4F00
215080
40E040
804020
804020
804020
804020
40E040
215080
1E4F00
004000
004000
004000
004000
ENDCHAR
STARTCHAR 0445
ENCODING 1093
SWIDTH 462 0
DWIDTH 9 0
BBX 9 10 0 0
BITMAP
8080
4100
2200
1400
0800
0800
1400
2200
4100
8080
ENDCHAR
STARTCHAR 0446
ENCODING 1094
SWIDTH 617 0
DWIDTH 12 0
BBX 11 12 1 -2
BITMAP
8100
8100
8100
8100
8100
8100
8100
8100
8100
FFE0
0020
0020
ENDCHAR
STARTCHAR 0447
ENCODING 1095
SWIDTH 462 0
DWIDTH 9 0
BBX 7 10 1 0
BITMAP
82
82
82
82
7E
02
02
02
02
02
ENDCHAR
STARTCHAR 0448
ENCODING 1096
SWIDTH 925 0
DWIDTH 18 0
BBX 16 10 1 0
BITMAP
8101
8101
8101
8101
8101
8101
8101
8101
8101
FFFF
ENDCHAR
STARTCHAR 0449
ENCODING 1097
SWIDTH 977 0
DWIDTH 19 0
BBX 18 12 1 -2
BITMAP
810100
810100
810100
810100
810100
810100
810100
810100
810100
FFFFC0
000040
000040
ENDCHAR
STARTCHAR 044A
ENCODING 1098
SWIDTH 514 0
DWIDTH 10 0
BBX 9 10 0 0
BITMAP
E000
2000
2000
2000
3E00
2100
2080
2080
2100
3E00
ENDCHAR
STARTCHAR 044B
ENCODING 1099
SWIDTH 668 0
DWIDTH 13 0
BBX 11 10 1 0
BITMAP
8020
8020
8020
8020
FC20
8220
8120
8120
8220
FC20
ENDCHAR
STARTCHAR 044C
ENCODING 1100
SWIDTH 462 0
DWIDTH 9 0
BBX 7 10 1 0
BITMAP
80
80
80
80
F8
84
82
82
84
F8
ENDCHAR
STARTCHAR 044D
ENCODING 1101
SWIDTH 617 0
DWIDTH 12 0
BBX 10 10 1 0
BITMAP
3E00
4100
8080
0040
0FC0
0040
0040
8080
4100
3E00
ENDCHAR
STARTCHAR 044E
ENCODING 1102
SWIDTH 822 0
DWIDTH 16 0
BBX 14 10 1 0
BITMAP
81E0
8210
8408
8804
F804
8804
8804
8408
8210
81E0
ENDCHAR
STARTCHAR 044F
ENCODING 1103
SWIDTH 411 0
DWIDTH 8 0
BBX 6 10 1 0
BITMAP
7C
84
84
84
7C
14
24
44
44
84
ENDCHAR
STARTCHAR 0451
ENCODING 1105
SWIDTH 617 0
DWIDTH 12 0
BBX 10 13 1 0
BITMAP
3300
3300
0000
1E00
2100
4080
8040
FFC0
8000
8000
4040
2080
1F00
ENDCHAR
STARTCHAR 0452
ENCODING 1106
SWIDTH 617 0
DWIDTH 12 0
BBX 11 18 0 -4
BITMAP
4000
4000
FE00
4000
4F00
5080
6040
4020
4020
4020
4020
4020
4020
4020
0020
0020
0020
00C0
ENDCHAR
STARTCHAR 0453
ENCODING 1107
SWIDTH 360 0
DWIDTH 7 0
BBX 6 14 1 0
BITMAP
0C
18
30
00
FC
80
80
80
80
80
80
80
80
80
ENDCHAR
STARTCHAR 0454
ENCODING 1108
SWIDTH 617 0
DWIDTH 12 0
BBX 10 10 1 0
BITMAP
1F00
2080
4040
8000
FC00
8000
8000
4040
2080
1F00
ENDCHAR
STARTCHAR 0455
ENCODING 1109
SWIDTH 360 0
DWIDTH 7 0
BBX 6 10 0 0
BITMAP
78
84
80
80
60
18
04
04
84
78
ENDCHAR
STARTCHAR 0456
ENCODING 1110
SWIDTH 154 0
DWIDTH 3 0
BBX 1 14 1 0
BITMAP
80
80
00
00
80
80
80
80
80
80
80
80
80
80
ENDCHAR
STARTCHAR 0457
ENCODING 1111
SWIDTH 154 0
DWIDTH 3 0
BBX 6 13 -1 0
BITMAP
CC
CC
00
20
20
20
20
20
20
20
20
20
20
ENDCHAR
STARTCHAR 0458
ENCODING 1112
SWIDTH 154 0
DWIDTH 3 0
BBX 3 18 -1 -4
BITMAP
20
20
00
00
20
20
20
20
20
20
20
20
20
20
20
20
20
C0
ENDCHAR
STARTCHAR 0459
ENCODING 1113
SWIDTH 771 0
DWIDTH 15 0
BBX 14 10 0 0
BITMAP
0800
1400
1400
1400
23F0
2208
4104
4104
8088
80F0
ENDCHAR
STARTCHAR 045A
ENCODING 1114
SWIDTH 822 0
DWIDTH 16 0
BBX 14 10 1 0
BITMAP
8100
8100
8100
8100
FFF0
8108
8104
8104
8108
81F0
ENDCHAR
STARTCHAR 045B
ENCODING 1115
SWIDTH 617 0
DWIDTH 12 0
BBX 11 14 0 0
BITMAP
4000
4000
FF00
4000
4F00
5080
6040
4020
4020
4020
4020
4020
4020
4020
ENDCHAR
STARTCHAR 045C
ENCODING 1116
SWIDTH 514 0
DWIDTH 10 0
BBX 8 14 1 0
BITMAP
06
0C
18
00
82
84
88
90
A0
E0
90
88
86
81
ENDCHAR
STARTCHAR 045E
ENCODING 1118
SWIDTH 565 0
DWIDTH 11 0
BBX 10 17 0 -4
BITMAP
6300
3E00
0000
8040
4080
4080
2100
2100
1200
1200
0C00
0C00
0800
0800
1000
1000
2000
ENDCHAR
STARTCHAR 045F
ENCODING 1119
SWIDTH 565 0
DWIDTH 11 0
BBX 9 12 1 -2
BITMAP
8080
8080
8080
8080
8080
8080
8080
8080
8080
FF80
0800
0800
ENDCHAR
STARTCHAR 0490
ENCODING 1168
SWIDTH 411 0
DWIDTH 8 0
BBX 6 16 2 0
BITMAP
04
04
FC
80
80
80
80
80
80
80
80
80
80
80
80
80
ENDCHAR
STARTCHAR 0491
ENCODING 1169
SWIDTH 360 0
DWIDTH 7 0
BBX 5 12 1 0
BITMAP
08
08
F8
80
80
80
80
80
80
80
80
80
ENDCHAR
STARTCHAR 1E80
ENCODING 7808
SWIDTH 874 0
DWIDTH 17 0
BBX 15 18 1 0
BITMAP
0600
0300
0180
0000
8102
8102
4284
4284
4284
4444
4444
2448
2828
2828
2828
2838
1010
1010
ENDCHAR
STARTCHAR 1E81
ENCODING 7809
SWIDTH 822 0
DWIDTH 16 0
BBX 15 14 0 0
BITMAP
0600
0300
0180
0000
8102
4104
4284
4284
2288
2448
1450
1450
1450
0820
ENDCHAR
STARTCHAR 1E82
ENCODING 7810
SWIDTH 874 0
DWIDTH 17 0
BBX 15 18 1 0
BITMAP
0030
0060
00C0
0000
8102
8102
4284
4284
4284
4444
4444
2448
2828
2828
2828
2838
1010
1010
ENDCHAR
STARTCHAR 1E83
ENCODING 7811
SWIDTH 822 0
DWIDTH 16 0
BBX 15 14 0 0
BITMAP
00C0
0180
0300
0000
8102
4104
4284
4284
2288
2448
1450
1450
1450
0820
ENDCHAR
STARTCHAR 1E84
ENCODING 7812
SWIDTH 925 0
DWIDTH 18 0
BBX 15 17 1 0
BITMAP
0CC0
0CC0
0000
8102
8102
4284
4284
4284
4444
4444
2448
2828
2828
2828
2838
1010
1010
ENDCHAR
STARTCHAR 1E85
ENCODING 7813
SWIDTH 822 0
DWIDTH 16 0
BBX 15 13 0 0
BITMAP
0660
0660
0000
8102
4104
4284
4284
2288
2448
1450
1450
1450
0820
ENDCHAR
STARTCHAR 1EF2
ENCODING 7922
SWIDTH 565 0
DWIDTH 11 0
BBX 9 18 1 0
BITMAP
3000
1800
0C00
0000
8080
4100
4100
2200
2200
1400
1C00
0800
0800
0800
0800
0800
0800
0800
ENDCHAR
STARTCHAR 1EF3
ENCODING 7923
SWIDTH 565 0
DWIDTH 11 0
BBX 10 18 0 -4
BITMAP
3000
1800
0C00
0000
8040
4080
4080
2100
2100
1200
1200
0C00
0C00
0800
0800
1000
1000
2000
ENDCHAR
STARTCHAR 2013
ENCODING 8211
SWIDTH 514 0
DWIDTH 10 0
BBX 10 1 0 5
BITMAP
FFC0
ENDCHAR
STARTCHAR 2014
ENCODING 8212
SWIDTH 977 0
DWIDTH 19 0
BBX 19 1 0 5
BITMAP
FFFFE0
ENDCHAR
STARTCHAR 2015
ENCODING 8213
SWIDTH 720 0
DWIDTH 14 0
BBX 14 1 0 5
BITMAP
FFFC
ENDCHAR
STARTCHAR 2017
ENCODING 8215
SWIDTH 514 0
DWIDTH 10 0
BBX 12 3 -1 -4
BITMAP
FFF0
0000
FFF0
ENDCHAR
STARTCHAR 2018
ENCODING 8216
SWIDTH 360 0
DWIDTH 7 0
BBX 2 6 3 8
BITMAP
40
80
80
C0
C0
C0
ENDCHAR
STARTCHAR 2019
ENCODING 8217
SWIDTH 360 0
DWIDTH 7 0
BBX 2 6 2 8
BITMAP
C0
C0
C0
40
40
80
ENDCHAR
STARTCHAR 201A
ENCODING 8218
SWIDTH 360 0
DWIDTH 7 0
BBX 2 6 2 -3
BITMAP
C0
C0
C0
40
40
80
ENDCHAR
STARTCHAR 201B
ENCODING 8219
SWIDTH 360 0
DWIDTH 7 0
BBX 2 6 2 8
BITMAP
C0
C0
C0
80
80
40
ENDCHAR
STARTCHAR 201C
ENCODING 8220
SWIDTH 514 0
DWIDTH 10 0
BBX 6 6 2 8
BITMAP
44
88
88
CC
CC
CC
ENDCHAR
STARTCHAR 201D
ENCODING 8221
SWIDTH 462 0
DWIDTH 9 0
BBX 6 6 2 8
BITMAP
CC
CC
CC
44
44
88
ENDCHAR
STARTCHAR 201E
ENCODING 8222
SWIDTH 514 0
DWIDTH 10 0
BBX 6 6 2 -3
BITMAP
CC
CC
CC
44
44
88
ENDCHAR
STARTCHAR 2020
ENCODING 8224
SWIDTH 565 0
DWIDTH 11 0
BBX 7 17 1 -3
BITMAP
10
10
10
10
FE
10
10
10
10
10
10
10
10
10
10
10
10
ENDCHAR
STARTCHAR 2021
ENCODING 8225
SWIDTH 514 0
DWIDTH 10 0
BBX 7 17 1 -3
BITMAP
10
10
10
FE
10
10
10
10
10
10
10
10
10
FE
10
10
10
ENDCHAR
STARTCHAR 2022
ENCODING 8226
SWIDTH 617 0
DWIDTH 12 0
BBX 6 6 3 4
BITMAP
78
FC
FC
FC
FC
78
ENDCHAR
STARTCHAR 2026
ENCODING 8230
SWIDTH 925 0
DWIDTH 18 0
BBX 14 2 2 0
BITMAP
C30C
C30C
ENDCHAR
STARTCHAR 2030
ENCODING 8240
SWIDTH 1080 0
DWIDTH 21 0
BBX 20 15 1 -1
BITMAP
703000
8FE000
844000
844000
848000
790000
010000
020000
04F1E0
050A10
090A10
110A10
110A10
20F1E0
400000
ENDCHAR
STARTCHAR 2032
ENCODING 8242
SWIDTH 205 0
DWIDTH 4 0
BBX 2 4 1 10
BITMAP
40
40
80
80
ENDCHAR
STARTCHAR 2033
ENCODING 8243
SWIDTH 308 0
DWIDTH 6 0
BBX 6 4 0 10
BITMAP
44
44
88
88
ENDCHAR
STARTCHAR 2039
ENCODING 8249
SWIDTH 205 0
DWIDTH 4 0
BBX 3 10 0 0
BITMAP
20
40
40
40
80
80
40
40
40
20
ENDCHAR
STARTCHAR 203A
ENCODING 8250
SWIDTH 205 0
DWIDTH 4 0
BBX 3 10 0 0
BITMAP
80
40
40
40
20
20
40
40
40
80
ENDCHAR
STARTCHAR 203C
ENCODING 8252
SWIDTH 514 0
DWIDTH 10 0
BBX 4 14 3 0
BITMAP
90
90
90
90
90
90
90
90
90
90
90
00
90
90
ENDCHAR
STARTCHAR 203E
ENCODING 8254
SWIDTH 565 0
DWIDTH 11 0
BBX 11 1 0 16
BITMAP
FFE0
ENDCHAR
STARTCHAR 2044
ENCODING 8260
SWIDTH 154 0
DWIDTH 3 0
BBX 9 14 -3 0
BITMAP
0080
0100
0100
0200
0400
0400
0800
0800
1000
1000
2000
4000
4000
8000
ENDCHAR
STARTCHAR 207F
ENCODING 8319
SWIDTH 360 0
DWIDTH 7 0
BBX 5 6 1 6
BITMAP
B0
C8
88
88
88
88
ENDCHAR
STARTCHAR 20A3
ENCODING 8355
SWIDTH 462 0
DWIDTH 9 0
BBX 8 14 0 0
BITMAP
3F
20
20
20
20
20
3F
20
20
20
F8
20
20
20
ENDCHAR
STARTCHAR 20A4
ENCODING 8356
SWIDTH 565 0
DWIDTH 11 0
BBX 10 14 0 0
BITMAP
1F00
2180
2080
2000
2000
FF00
1000
FF00
1000
1000
7000
9040
AC40
E780
ENDCHAR
STARTCHAR 20A7
ENCODING 8359
SWIDTH 1080 0
DWIDTH 21 0
BBX 18 14 2 0
BITMAP
F84000
844000
824000
824000
83FF80
8648C0
FC4800
804800
804600
804180
804040
804040
804840
804780
ENDCHAR
STARTCHAR 20AC
ENCODING 8364
SWIDTH 565 0
DWIDTH 11 0
BBX 9 14 1 0
BITMAP
0780
1800
2000
2000
4000
FF00
4000
4000
FE00
4000
2000
2000
1800
0780
ENDCHAR
STARTCHAR 2105
ENCODING 8453
SWIDTH 874 0
DWIDTH 17 0
BBX 17 14 0 0
BITMAP
380800
441000
801000
802000
804000
444000
388000
010E00
011100
022080
042080
042080
081100
100E00
ENDCHAR
STARTCHAR 2113
ENCODING 8467
SWIDTH 360 0
DWIDTH 7 0
BBX 6 14 0 0
BITMAP
18
24
24
24
28
28
30
20
20
60
A0
20
24
3C
ENDCHAR
STARTCHAR 2116
ENCODING 8470
SWIDTH 1080 0
DWIDTH 21 0
BBX 18 14 2 0
BITMAP
804000
804000
C04000
A04000
904000
904300
884480
844840
824840
824480
814300
80C000
804000
804FC0
ENDCHAR
STARTCHAR 2122
ENCODING 8482
SWIDTH 977 0
DWIDTH 19 0
BBX 18 8 0 6
BITMAP
FE60C0
1060C0
105140
105140
104A40
104E40
104440
104440
ENDCHAR
STARTCHAR 2126
ENCODING 8486
SWIDTH 771 0
DWIDTH 15 0
BBX 13 14 1 0
BITMAP
0F80
1040
2020
4010
8008
8008
8008
8008
8008
8018
4010
2020
1040
F8F8
ENDCHAR
STARTCHAR 212E
ENCODING 8494
SWIDTH 565 0
DWIDTH 11 0
BBX 9 11 1 0
BITMAP
3C00
6300
4100
C180
C180
FF80
C000
C000
4100
6300
3C00
ENDCHAR
STARTCHAR 215B
ENCODING 8539
SWIDTH 822 0
DWIDTH 16 0
BBX 15 14 1 0
BITMAP
E020
2040
2040
2080
2180
2100
2200
021C
0422
0822
081C
1022
1022
201C
ENDCHAR
STARTCHAR 215C
ENCODING 8540
SWIDTH 822 0
DWIDTH 16 0
BBX 16 14 0 0
BITMAP
7808
8410
0410
1820
0440
8440
7880
010E
0111
0211
040E
0411
0811
100E
ENDCHAR
STARTCHAR 215D
ENCODING 8541
SWIDTH 822 0
DWIDTH 16 0
BBX 16 14 0 0
BITMAP
3808
4010
7010
0820
0840
88C0
7080
010E
0211
0211
040E
0811
0811
100E
ENDCHAR
STARTCHAR 215E
ENCODING 8542
SWIDTH 822 0
DWIDTH 16 0
BBX 15 14 1 0
BITMAP
F820
1040
1040
2080
4100
4100
8200
041C
0822
0822
101C
2022
2022
401C
ENDCHAR
STARTCHAR 2190
ENCODING 8592
SWIDTH 977 0
DWIDTH 19 0
BBX 18 7 1 1
BITMAP
080000
100000
600000
FFFFC0
600000
100000
080000
ENDCHAR
STARTCHAR 2191
ENCODING 8593
SWIDTH 514 0
DWIDTH 10 0
BBX 7 18 2 -4
BITMAP
10
38
38
54
92
10
10
10
10
10
10
10
10
10
10
10
10
10
ENDCHAR
STARTCHAR 2192
ENCODING 8594
SWIDTH 977 0
DWIDTH 19 0
BBX 18 7 1 1
BITMAP
000400
000200
000180
FFFFC0
000180
000200
000400
ENDCHAR
STARTCHAR 2193
ENCODING 8595
SWIDTH 514 0
DWIDTH 10 0
BBX 7 18 2 -4
BITMAP
10
10
10
10
10
10
10
10
10
10
10
10
10
92
54
38
38
10
ENDCHAR
STARTCHAR 2194
ENCODING 8596
SWIDTH 977 0
DWIDTH 19 0
BBX 18 7 1 1
BITMAP
080400
100200
600180
FFFFC0
600180
100200
080400
ENDCHAR
STARTCHAR 2195
ENCODING 8597
SWIDTH 514 0
DWIDTH 10 0
BBX 7 18 2 -4
BITMAP
10
38
38
54
92
10
10
10
10
10
10
10
10
92
54
38
38
10
ENDCHAR
STARTCHAR 21A8
ENCODING 8616
SWIDTH 514 0
DWIDTH 10 0
BBX 7 20 2 -6
BITMAP
10
38
38
54
92
10
10
10
10
10
10
10
10
92
54
38
38
10
00
FE
ENDCHAR
STARTCHAR 2202
ENCODING 8706
SWIDTH 462 0
DWIDTH 9 0
BBX 8 14 1 0
BITMAP
0E
11
21
01
01
0F
31
41
C1
81
82
84
88
70
ENDCHAR
STARTCHAR 2206
ENCODING 8710
SWIDTH 617 0
DWIDTH 12 0
BBX 12 13 0 0
BITMAP
0200
0200
0500
0500
0900
0880
1080
1040
2040
2020
4020
4020
FFF0
ENDCHAR
STARTCHAR 220F
ENCODING 8719
SWIDTH 822 0
DWIDTH 16 0
BBX 13 18 1 -4
BITMAP
FFF8
8008
8008
8008
8008
8008
8008
8008
8008
8008
8008
8008
8008
8008
8008
8008
8008
8008
ENDCHAR
STARTCHAR 2211
ENCODING 8721
SWIDTH 720 0
DWIDTH 14 0
BBX 12 18 1 -4
BITMAP
FFF0
8000
4000
2000
1000
0800
0800
0400
0200
0400
0400
0800
1000
2000
2000
4000
8000
FFF0
ENDCHAR
STARTCHAR 2212
ENCODING 8722
SWIDTH 617 0
DWIDTH 12 0
BBX 10 1 1 6
BITMAP
FFC0
ENDCHAR
STARTCHAR 2215
ENCODING 8725
SWIDTH 154 0
DWIDTH 3 0
BBX 9 14 -3 0
BITMAP
0080
0100
0100
0200
0400
0400
0800
0800
1000
1000
2000
4000
4000
8000
ENDCHAR
STARTCHAR 2219
ENCODING 8729
SWIDTH 257 0
DWIDTH 5 0
BBX 2 2 1 6
BITMAP
C0
C0
ENDCHAR
STARTCHAR 221A
ENCODING 8730
SWIDTH 514 0
DWIDTH 10 0
BBX 9 17 1 0
BITMAP
0080
0080
0080
0100
0100
0100
0100
2100
E100
1100
1200
1200
0A00
0A00
0600
0600
0400
ENDCHAR
STARTCHAR 221E
ENCODING 8734
SWIDTH 720 0
DWIDTH 14 0
BBX 11 7 1 3
BITMAP
01C0
7220
8A20
8420
8A20
7220
01C0
ENDCHAR
STARTCHAR 221F
ENCODING 8735
SWIDTH 977 0
DWIDTH 19 0
BBX 12 12 3 0
BITMAP
8000
8000
8000
8000
8000
8000
8000
8000
8000
8000
8000
FFF0
ENDCHAR
STARTCHAR 2229
ENCODING 8745
SWIDTH 565 0
DWIDTH 11 0
BBX 9 14 1 0
BITMAP
1C00
6300
4100
8080
8080
8080
8080
8080
8080
8080
8080
8080
8080
8080
ENDCHAR
STARTCHAR 222B
ENCODING 8747
SWIDTH 257 0
DWIDTH 5 0
BBX 5 19 0 -2
BITMAP
18
28
20
20
20
20
20
20
20
20
20
20
20
20
20
20
20
A0
C0
ENDCHAR
STARTCHAR 2248
ENCODING 8776
SWIDTH 514 0
DWIDTH 10 0
BBX 9 5 0 5
BITMAP
7880
8F00
0000
7880
8F00
ENDCHAR
STARTCHAR 2260
ENCODING 8800
SWIDTH 514 0
DWIDTH 10 0
BBX 9 13 0 0
BITMAP
0100
0200
0200
0400
FF80
0800
0800
0800
FF80
1000
2000
2000
4000
ENDCHAR
STARTCHAR 2261
ENCODING 8801
SWIDTH 617 0
DWIDTH 12 0
BBX 10 9 1 2
BITMAP
FFC0
0000
0000
0000
FFC0
0000
0000
0000
FFC0
ENDCHAR
STARTCHAR 2264
ENCODING 8804
SWIDTH 514 0
DWIDTH 10 0
BBX 9 13 1 1
BITMAP
0080
0100
0600
1800
2000
C000
2000
1800
0600
0100
0080
0000
FF80
ENDCHAR
STARTCHAR 2265
ENCODING 8805
SWIDTH 514 0
DWIDTH 10 0
BBX 9 13 1 1
BITMAP
8000
4000
3000
0C00
0200
0180
0200
0C00
3000
4000
8000
0000
FF80
ENDCHAR
STARTCHAR 2302
ENCODING 8962
SWIDTH 565 0
DWIDTH 11 0
BBX 9 10 1 0
BITMAP
0C00
1200
2100
4100
8080
8080
8080
8080
8080
FF80
ENDCHAR
STARTCHAR 2310
ENCODING 8976
SWIDTH 617 0
DWIDTH 12 0
BBX 10 5 1 5
BITMAP
FFC0
8000
8000
8000
8000
ENDCHAR
STARTCHAR 2320
ENCODING 8992
SWIDTH 565 0
DWIDTH 11 0
BBX 4 21 5 -5
BITMAP
70
90
80
80
80
80
80
80
80
80
80
80
80
80
80
80
80
80
80
80
80
ENDCHAR
STARTCHAR 2321
ENCODING 8993
SWIDTH 565 0
DWIDTH 11 0
BBX 4 21 2 -5
BITMAP
10
10
10
10
10
10
10
10
10
10
10
10
10
10
10
10
10
10
10
D0
60
ENDCHAR
STARTCHAR 2500
ENCODING 9472
SWIDTH 720 0
DWIDTH 14 0
BBX 14 2 0 5
BITMAP
FFFC
FFFC
ENDCHAR
STARTCHAR 2502
ENCODING 9474
SWIDTH 720 0
DWIDTH 14 0
BBX 2 23 6 -6
BITMAP
C0
C0
C0
C0
C0
C0
C0
C0
C0
C0
C0
C0
C0
C0
C0
C0
C0
C0
C0
C0
C0
C0
C0
ENDCHAR
STARTCHAR 250C
ENCODING 9484
SWIDTH 720 0
DWIDTH 14 0
BBX 8 13 6 -6
BITMAP
FF
FF
C0
C0
C0
C0
C0
C0
C0
C0
C0
C0
C0
ENDCHAR
STARTCHAR 2510
ENCODING 9488
SWIDTH 720 0
DWIDTH 14 0
BBX 8 13 0 -6
BITMAP
FF
FF
03
03
03
03
03
03
03
03
03
03
03
ENDCHAR
STARTCHAR 2514
ENCODING 9492
SWIDTH 720 0
DWIDTH 14 0
BBX 8 12 6 5
BITMAP
C0
C0
C0
C0
C0
C0
C0
C0
C0
C0
FF
FF
ENDCHAR
STARTCHAR 2518
ENCODING 9496
SWIDTH 720 0
DWIDTH 14 0
BBX 8 12 0 5
BITMAP
03
03
03
03
03
03
03
03
03
03
FF
FF
ENDCHAR
STARTCHAR 251C
ENCODING 9500
SWIDTH 720 0
DWIDTH 14 0
BBX 8 23 6 -6
BITMAP
C0
C0
C0
C0
C0
C0
C0
C0
C0
C0
FF
FF
C0
C0
C0
C0
C0
C0
C0
C0
C0
C0
C0
ENDCHAR
STARTCHAR 2524
ENCODING 9508
SWIDTH 720 0
DWIDTH 14 0
BBX 8 23 0 -6
BITMAP
03
03
03
03
03
03
03
03
03
03
FF
FF
03
03
03
03
03
03
03
03
03
03
03
ENDCHAR
STARTCHAR 252C
ENCODING 9516
SWIDTH 720 0
DWIDTH 14 0
BBX 14 13 0 -6
BITMAP
FFFC
FFFC
0300
0300
0300
0300
0300
0300
0300
0300
0300
0300
0300
ENDCHAR
STARTCHAR 2534
ENCODING 9524
SWIDTH 720 0
DWIDTH 14 0
BBX 14 12 0 5
BITMAP
0300
0300
0300
0300
0300
0300
0300
0300
0300
0300
FFFC
FFFC
ENDCHAR
STARTCHAR 253C
ENCODING 9532
SWIDTH 720 0
DWIDTH 14 0
BBX 14 23 0 -6
BITMAP
0300
0300
0300
0300
0300
0300
0300
0300
0300
0300
FFFC
FFFC
0300
0300
0300
0300
0300
0300
0300
0300
0300
0300
0300
ENDCHAR
STARTCHAR 2550
ENCODING 9552
SWIDTH 720 0
DWIDTH 14 0
BBX 14 5 0 3
BITMAP
FFFC
0000
0000
FFFC
FFFC
ENDCHAR
STARTCHAR 2551
ENCODING 9553
SWIDTH 720 0
DWIDTH 14 0
BBX 5 23 4 -6
BITMAP
C8
C8
C8
C8
C8
C8
C8
C8
C8
C8
C8
C8
C8
C8
C8
C8
C8
C8
C8
C8
C8
C8
C8
ENDCHAR
STARTCHAR 2552
ENCODING 9554
SWIDTH 720 0
DWIDTH 14 0
BBX 8 14 6 -6
BITMAP
FF
C0
C0
FF
FF
C0
C0
C0
C0
C0
C0
C0
C0
C0
ENDCHAR
STARTCHAR 2553
ENCODING 9555
SWIDTH 720 0
DWIDTH 14 0
BBX 10 13 4 -6
BITMAP
FFC0
FFC0
C800
C800
C800
C800
C800
C800
C800
C800
C800
C800
C800
ENDCHAR
STARTCHAR 2554
ENCODING 9556
SWIDTH 720 0
DWIDTH 14 0
BBX 10 14 4 -6
BITMAP
FFC0
C000
C000
CFC0
CFC0
C800
C800
C800
C800
C800
C800
C800
C800
C800
ENDCHAR
STARTCHAR 2555
ENCODING 9557
SWIDTH 720 0
DWIDTH 14 0
BBX 8 14 0 -6
BITMAP
FF
03
03
FF
FF
03
03
03
03
03
03
03
03
03
ENDCHAR
STARTCHAR 2556
ENCODING 9558
SWIDTH 720 0
DWIDTH 14 0
BBX 9 13 0 -6
BITMAP
FF80
FF80
0C80
0C80
0C80
0C80
0C80
0C80
0C80
0C80
0C80
0C80
0C80
ENDCHAR
STARTCHAR 2557
ENCODING 9559
SWIDTH 720 0
DWIDTH 14 0
BBX 9 14 0 -6
BITMAP
FF80
0080
0080
FC80
FC80
0C80
0C80
0C80
0C80
0C80
0C80
0C80
0C80
0C80
ENDCHAR
STARTCHAR 2558
ENCODING 9560
SWIDTH 720 0
DWIDTH 14 0
BBX 8 14 6 3
BITMAP
C0
C0
C0
C0
C0
C0
C0
C0
C0
FF
C0
C0
FF
FF
ENDCHAR
STARTCHAR 2559
ENCODING 9561
SWIDTH 720 0
DWIDTH 14 0
BBX 10 12 4 5
BITMAP
C800
C800
C800
C800
C800
C800
C800
C800
C800
C800
FFC0
FFC0
ENDCHAR
STARTCHAR 255A
ENCODING 9562
SWIDTH 720 0
DWIDTH 14 0
BBX 10 14 4 3
BITMAP
C800
C800
C800
C800
C800
C800
C800
C800
C800
CFC0
C000
C000
FFC0
FFC0
ENDCHAR
STARTCHAR 255B
ENCODING 9563
SWIDTH 720 0
DWIDTH 14 0
BBX 8 14 0 3
BITMAP
03
03
03
03
03
03
03
03
03
FF
03
03
FF
FF
ENDCHAR
STARTCHAR 255C
ENCODING 9564
SWIDTH 720 0
DWIDTH 14 0
BBX 9 12 0 5
BITMAP
0C80
0C80
0C80
0C80
0C80
0C80
0C80
0C80
0C80
0C80
FF80
FF80
ENDCHAR
STARTCHAR 255D
ENCODING 9565
SWIDTH 720 0
DWIDTH 14 0
BBX 9 14 0 3
BITMAP
0C80
0C80
0C80
0C80
0C80
0C80
0C80
0C80
0C80
FC80
0080
0080
FF80
FF80
ENDCHAR
STARTCHAR 255E
ENCODING 9566
SWIDTH 720 0
DWIDTH 14 0
BBX 8 23 6 -6
BITMAP
C0
C0
C0
C0
C0
C0
C0
C0
C0
FF
C0
C0
FF
FF
C0
C0
C0
C0
C0
C0
C0
C0
C0
ENDCHAR
STARTCHAR 255F
ENCODING 9567
SWIDTH 720 0
DWIDTH 14 0
BBX 10 23 4 -6
BITMAP
C800
C800
C800
C800
C800
C800
C800
C800
C800
C800
CFC0
CFC0
C800
C800
C800
C800
C800
C800
C800
C800
C800
C800
C800
ENDCHAR
STARTCHAR 2560
ENCODING 9568
SWIDTH 720 0
DWIDTH 14 0
BBX 10 23 4 -6
BITMAP
C800
C800
C800
C800
C800
C800
C800
C800
C800
CFC0
C000
C000
CFC0
CFC0
C800
C800
C800
C800
C800
C800
C800
C800
C800
ENDCHAR
STARTCHAR 2561
ENCODING 9569
SWIDTH 720 0
DWIDTH 14 0
BBX 8 23 0 -6
BITMAP
03
03
03
03
03
03
03
03
03
FF
03
03
FF
FF
03
03
03
03
03
03
03
03
03
ENDCHAR
STARTCHAR 2562
ENCODING 9570
SWIDTH 720 0
DWIDTH 14 0
BBX 9 23 0 -6
BITMAP
0C80
0C80
0C80
0C80
0C80
0C80
0C80
0C80
0C80
0C80
FC80
FC80
0C80
0C80
0C80
0C80
0C80
0C80
0C80
0C80
0C80
0C80
0C80
ENDCHAR
STARTCHAR 2563
ENCODING 9571
SWIDTH 720 0
DWIDTH 14 0
BBX 9 23 0 -6
BITMAP
0C80
0C80
0C80
0C80
0C80
0C80
0C80
0C80
0C80
FC80
0080
0080
FC80
FC80
0C80
0C80
0C80
0C80
0C80
0C80
0C80
0C80
0C80
ENDCHAR
STARTCHAR 2564
ENCODING 9572
SWIDTH 720 0
DWIDTH 14 0
BBX 14 14 0 -6
BITMAP
FFFC
0000
0000
FFFC
FFFC
0300
0300
0300
0300
0300
0300
0300
0300
0300
ENDCHAR
STARTCHAR 2565
ENCODING 9573
SWIDTH 720 0
DWIDTH 14 0
BBX 14 13 0 -6
BITMAP
FFFC
FFFC
0C80
0C80
0C80
0C80
0C80
0C80
0C80
0C80
0C80
0C80
0C80
ENDCHAR
STARTCHAR 2566
ENCODING 9574
SWIDTH 720 0
DWIDTH 14 0
BBX 14 14 0 -6
BITMAP
FFFC
0000
0000
FCFC
FCFC
0C80
0C80
0C80
0C80
0C80
0C80
0C80
0C80
0C80
ENDCHAR
STARTCHAR 2567
ENCODING 9575
SWIDTH 720 0
DWIDTH 14 0
BBX 14 14 0 3
BITMAP
0300
0300
0300
0300
0300
0300
0300
0300
0300
FFFC
0000
0000
FFFC
FFFC
ENDCHAR
STARTCHAR 2568
ENCODING 9576
SWIDTH 720 0
DWIDTH 14 0
BBX 14 12 0 5
BITMAP
0C80
0C80
0C80
0C80
0C80
0C80
0C80
0C80
0C80
0C80
FFFC
FFFC
ENDCHAR
STARTCHAR 2569
ENCODING 9577
SWIDTH 720 0
DWIDTH 14 0
BBX 14 14 0 3
BITMAP
0C80
0C80
0C80
0C80
0C80
0C80
0C80
0C80
0C80
FCFC
0000
0000
FFFC
FFFC
ENDCHAR
STARTCHAR 256A
ENCODING 9578
SWIDTH 720 0
DWIDTH 14 0
BBX 14 23 0 -6
BITMAP
0300
0300
0300
0300
0300
0300
0300
0300
0300
FFFC
0300
0300
FFFC
FFFC
0300
0300
0300
0300
0300
0300
0300
0300
0300
ENDCHAR
STARTCHAR 256B
ENCODING 9579
SWIDTH 720 0
DWIDTH 14 0
BBX 14 23 0 -6
BITMAP
0C80
0C80
0C80
0C80
0C80
0C80
0C80
0C80
0C80
0C80
FFFC
FFFC
0C80
0C80
0C80
0C80
0C80
0C80
0C80
0C80
0C80
0C80
0C80
ENDCHAR
STARTCHAR 256C
ENCODING 9580
SWIDTH 720 0
DWIDTH 14 0
BBX 14 23 0 -6
BITMAP
0C80
0C80
0C80
0C80
0C80
0C80
0C80
0C80
0C80
FCFC
0000
0000
FCFC
FCFC
0C80
0C80
0C80
0C80
0C80
0C80
0C80
0C80
0C80
ENDCHAR
STARTCHAR 2580
ENCODING 9600
SWIDTH 720 0
DWIDTH 14 0
BBX 14 11 0 6
BITMAP
FFFC
FFFC
FFFC
FFFC
FFFC
FFFC
FFFC
FFFC
FFFC
FFFC
FFFC
ENDCHAR
STARTCHAR 2584
ENCODING 9604
SWIDTH 720 0
DWIDTH 14 0
BBX 14 12 0 -6
BITMAP
FFFC
FFFC
FFFC
FFFC
FFFC
FFFC
FFFC
FFFC
FFFC
FFFC
FFFC
FFFC
ENDCHAR
STARTCHAR 2588
ENCODING 9608
SWIDTH 720 0
DWIDTH 14 0
BBX 14 23 0 -6
BITMAP
FFFC
FFFC
FFFC
FFFC
FFFC
FFFC
FFFC
FFFC
FFFC
FFFC
FFFC
FFFC
FFFC
FFFC
FFFC
FFFC
FFFC
FFFC
FFFC
FFFC
FFFC
FFFC
FFFC
ENDCHAR
STARTCHAR 258C
ENCODING 9612
SWIDTH 720 0
DWIDTH 14 0
BBX 7 23 0 -6
BITMAP
FE
FE
FE
FE
FE
FE
FE
FE
FE
FE
FE
FE
FE
FE
FE
FE
FE
FE
FE
FE
FE
FE
FE
ENDCHAR
STARTCHAR 2590
ENCODING 9616
SWIDTH 720 0
DWIDTH 14 0
BBX 7 23 7 -6
BITMAP
FE
FE
FE
FE
FE
FE
FE
FE
FE
FE
FE
FE
FE
FE
FE
FE
FE
FE
FE
FE
FE
FE
FE
ENDCHAR
STARTCHAR 2591
ENCODING 9617
SWIDTH 720 0
DWIDTH 14 0
BBX 13 22 1 -5
BITMAP
8440
0000
2108
0000
8440
0000
0000
2108
0000
8440
0000
2108
0000
0000
8440
0000
2108
0000
8440
0000
0000
2108
ENDCHAR
STARTCHAR 2592
ENCODING 9618
SWIDTH 720 0
DWIDTH 14 0
BBX 14 22 0 -5
BITMAP
52A4
0000
AD58
0000
52A4
0000
0000
AD58
0000
52A4
0000
AD58
0000
0000
52A4
0000
AD58
0000
52A4
0000
0000
AD58
ENDCHAR
STARTCHAR 2593
ENCODING 9619
SWIDTH 720 0
DWIDTH 14 0
BBX 14 23 0 -6
BITMAP
5AB4
FFFC
A548
FFFC
5AB4
FFFC
FFFC
A548
FFFC
5AB4
FFFC
A548
FFFC
FFFC
5AB4
FFFC
A548
FFFC
5AB4
FFFC
FFFC
A548
FFFC
ENDCHAR
STARTCHAR 25A0
ENCODING 9632
SWIDTH 565 0
DWIDTH 11 0
BBX 9 9 1 0
BITMAP
FF80
FF80
FF80
FF80
FF80
FF80
FF80
FF80
FF80
ENDCHAR
STARTCHAR 25A1
ENCODING 9633
SWIDTH 565 0
DWIDTH 11 0
BBX 9 9 1 0
BITMAP
FF80
8080
8080
8080
8080
8080
8080
8080
FF80
ENDCHAR
STARTCHAR 25AA
ENCODING 9642
SWIDTH 360 0
DWIDTH 7 0
BBX 5 5 1 4
BITMAP
F8
F8
F8
F8
F8
ENDCHAR
STARTCHAR 25AB
ENCODING 9643
SWIDTH 360 0
DWIDTH 7 0
BBX 5 5 1 4
BITMAP
F8
88
88
88
F8
ENDCHAR
STARTCHAR 25AC
ENCODING 9644
SWIDTH 977 0
DWIDTH 19 0
BBX 19 4 0 3
BITMAP
FFFFE0
FFFFE0
FFFFE0
FFFFE0
ENDCHAR
STARTCHAR 25B2
ENCODING 9650
SWIDTH 977 0
DWIDTH 19 0
BBX 13 13 3 0
BITMAP
0200
0200
0700
0700
0F80
0F80
1FC0
1FC0
3FE0
3FE0
7FF0
7FF0
FFF8
ENDCHAR
STARTCHAR 25BA
ENCODING 9658
SWIDTH 977 0
DWIDTH 19 0
BBX 13 13 3 0
BITMAP
8000
E000
F800
FE00
FF80
FFE0
FFF8
FFE0
FF80
FE00
F800
E000
8000
ENDCHAR
STARTCHAR 25BC
ENCODING 9660
SWIDTH 977 0
DWIDTH 19 0
BBX 13 13 3 0
BITMAP
FFF8
7FF0
7FF0
3FE0
3FE0
1FC0
1FC0
0F80
0F80
0700
0700
0200
0200
ENDCHAR
STARTCHAR 25C4
ENCODING 9668
SWIDTH 977 0
DWIDTH 19 0
BBX 13 13 3 0
BITMAP
0008
0038
00F8
03F8
0FF8
3FF8
FFF8
3FF8
0FF8
03F8
00F8
0038
0008
ENDCHAR
STARTCHAR 25CA
ENCODING 9674
SWIDTH 462 0
DWIDTH 9 0
BBX 8 13 1 0
BITMAP
10
28
24
44
42
82
81
82
42
44
24
28
10
ENDCHAR
STARTCHAR 25CB
ENCODING 9675
SWIDTH 565 0
DWIDTH 11 0
BBX 9 8 1 1
BITMAP
3E00
4100
4080
8080
8080
4100
2100
1E00
ENDCHAR
STARTCHAR 25CF
ENCODING 9679
SWIDTH 565 0
DWIDTH 11 0
BBX 7 8 2 1
BITMAP
38
7C
FE
FE
FE
FE
7C
38
ENDCHAR
STARTCHAR 25D8
ENCODING 9688
SWIDTH 565 0
DWIDTH 11 0
BBX 9 9 1 0
BITMAP
FF80
FF80
FF80
E380
E180
E380
FF80
FF80
FF80
ENDCHAR
STARTCHAR 25D9
ENCODING 9689
SWIDTH 565 0
DWIDTH 11 0
BBX 11 11 0 0
BITMAP
FFE0
FFE0
EEE0
DF60
DFA0
FFA0
FFA0
DFE0
EF60
F1E0
FFE0
ENDCHAR
STARTCHAR 25E6
ENCODING 9702
SWIDTH 360 0
DWIDTH 7 0
BBX 5 5 1 4
BITMAP
70
88
88
88
70
ENDCHAR
STARTCHAR 263A
ENCODING 9786
SWIDTH 977 0
DWIDTH 19 0
BBX 12 12 4 -1
BITMAP
0E00
3180
4040
8020
91A0
9190
8010
8020
9120
4E20
20C0
1F00
ENDCHAR
STARTCHAR 263B
ENCODING 9787
SWIDTH 1028 0
DWIDTH 20 0
BBX 12 12 4 -1
BITMAP
0F00
3FC0
7FE0
7FE0
EF70
EF70
FFF0
FFF0
7FE0
79E0
3FC0
1F80
ENDCHAR
STARTCHAR 263C
ENCODING 9788
SWIDTH 874 0
DWIDTH 17 0
BBX 17 17 0 -2
BITMAP
008000
008000
208200
11E400
0E1800
080800
100400
100400
F00780
100400
100400
080800
0C1800
13E400
208200
008000
008000
ENDCHAR
STARTCHAR 2640
ENCODING 9792
SWIDTH 565 0
DWIDTH 11 0
BBX 10 15 0 -2
BITMAP
1F00
6080
4080
8040
8040
4080
4080
2100
1E00
0800
0800
0800
3F00
0800
0800
ENDCHAR
STARTCHAR 2642
ENCODING 9794
SWIDTH 668 0
DWIDTH 13 0
BBX 12 16 0 -3
BITMAP
0020
00E0
0360
00A0
00A0
0110
0100
0200
1E00
6180
4080
8040
80C0
40C0
2180
1F00
ENDCHAR
STARTCHAR 2660
ENCODING 9824
SWIDTH 514 0
DWIDTH 10 0
BBX 9 10 1 0
BITMAP
1800
3C00
7E00
FF00
FF00
FF80
F700
1000
1800
3E00
ENDCHAR
STARTCHAR 2663
ENCODING 9827
SWIDTH 668 0
DWIDTH 13 0
BBX 11 11 1 0
BITMAP
1E00
1F00
1F00
7EC0
FFE0
FFE0
FBE0
FBC0
0400
0C00
3F00
ENDCHAR
STARTCHAR 2665
ENCODING 9829
SWIDTH 565 0
DWIDTH 11 0
BBX 10 11 1 0
BITMAP
F780
F7C0
FFC0
FF80
7F80
7F00
3E00
1E00
1C00
0800
0800
ENDCHAR
STARTCHAR 2666
ENCODING 9830
SWIDTH 514 0
DWIDTH 10 0
BBX 8 11 1 0
BITMAP
10
18
3C
7E
FE
FF
FE
7C
3C
18
10
ENDCHAR
STARTCHAR 266A
ENCODING 9834
SWIDTH 771 0
DWIDTH 15 0
BBX 14 18 0 -4
BITMAP
0040
0060
00B0
0098
008C
0084
0080
0080
0080
0080
0080
0080
3F80
7F80
FF80
FF80
7F80
7E00
ENDCHAR
STARTCHAR 266B
ENCODING 9835
SWIDTH 977 0
DWIDTH 19 0
BBX 13 18 3 -4
BITMAP
0008
0078
03F8
07F8
0788
0408
0408
0408
0408
0408
0408
04F8
04F8
7DF8
FCF8
FCF0
F800
7800
ENDCHAR
STARTCHAR F000
ENCODING 61440
SWIDTH 771 0
DWIDTH 15 0
BBX 1 1 0 0
BITMAP
00
ENDCHAR
STARTCHAR F001
ENCODING 61441
SWIDTH 462 0
DWIDTH 9 0
BBX 7 14 1 0
BITMAP
3C
42
40
40
FA
42
42
42
42
42
42
42
42
42
ENDCHAR
STARTCHAR F002
ENCODING 61442
SWIDTH 462 0
DWIDTH 9 0
BBX 7 14 1 0
BITMAP
3C
42
42
42
FA
42
42
42
42
42
42
42
42
42
ENDCHAR
STARTCHAR F003
ENCODING 61443
SWIDTH 360 0
DWIDTH 7 0
BBX 6 7 0 7
BITMAP
08
18
28
48
FC
08
08
ENDCHAR
STARTCHAR F004
ENCODING 61444
SWIDTH 308 0
DWIDTH 6 0
BBX 3 4 2 -5
BITMAP
60
40
40
80
ENDCHAR
STARTCHAR F005
ENCODING 61445
SWIDTH 308 0
DWIDTH 6 0
BBX 3 3 1 -3
BITMAP
60
20
C0
ENDCHAR
STARTCHAR F006
ENCODING 61446
SWIDTH 514 0
DWIDTH 10 0
BBX 10 10 0 0
BITMAP
FFC0
2100
2100
2100
2100
2100
2100
2100
2100
2100
ENDCHAR
STARTCHAR F100
ENCODING 61696
SWIDTH 514 0
DWIDTH 10 0
BBX 7 14 2 0
BITMAP
FE
80
80
80
80
80
80
80
80
80
80
80
80
80
ENDCHAR
STARTCHAR F101
ENCODING 61697
SWIDTH 720 0
DWIDTH 14 0
BBX 12 14 1 0
BITMAP
1F80
2040
4020
4020
8010
8010
9F90
8010
8010
8010
4020
4020
2040
1F80
ENDCHAR
STARTCHAR F102
ENCODING 61698
SWIDTH 822 0
DWIDTH 16 0
BBX 13 16 1 -2
BITMAP
0200
0200
1FC0
6230
4210
8208
8208
8208
8208
8208
4210
6230
1FC0
0200
0200
0200
ENDCHAR
STARTCHAR F103
ENCODING 61699
SWIDTH 617 0
DWIDTH 12 0
BBX 10 10 1 0
BITMAP
3E40
4180
8080
8080
8080
8080
8080
8080
4180
3E40
ENDCHAR
STARTCHAR F104
ENCODING 61700
SWIDTH 617 0
DWIDTH 12 0
BBX 10 14 1 0
BITMAP
0F00
1000
1000
0800
0400
3F00
6180
8040
8040
8040
8040
8040
6180
1E00
ENDCHAR
STARTCHAR F105
ENCODING 61701
SWIDTH 514 0
DWIDTH 10 0
BBX 8 10 1 0
BITMAP
1F
60
40
80
FF
80
80
40
60
1F
ENDCHAR
STARTCHAR F106
ENCODING 61702
SWIDTH 668 0
DWIDTH 13 0
BBX 12 10 1 0
BITMAP
1FF0
6180
4080
8040
8040
8040
8040
4080
6180
1E00
ENDCHAR
STARTCHAR F107
ENCODING 61703
SWIDTH 462 0
DWIDTH 9 0
BBX 7 10 1 0
BITMAP
FE
10
10
10
10
10
10
10
10
10
ENDCHAR
STARTCHAR F108
ENCODING 61704
SWIDTH 771 0
DWIDTH 15 0
BBX 11 16 2 -4
BITMAP
0400
0400
1F00
64C0
4440
8420
8420
8420
8420
C440
64C0
1F00
0400
0400
0400
0400
ENDCHAR
STARTCHAR FB01
ENCODING 64257
SWIDTH 462 0
DWIDTH 9 0
BBX 7 14 1 0
BITMAP
3C
42
40
40
FA
42
42
42
42
42
42
42
42
42
ENDCHAR
STARTCHAR FB02
ENCODING 64258
SWIDTH 462 0
DWIDTH 9 0
BBX 7 14 1 0
BITMAP
3C
42
42
42
FA
42
42
42
42
42
42
42
42
42
ENDCHAR
ENDFONT
